<?xml version="1.0" encoding="UTF-8"?>
<svg width="100mm" height="75mm" version="1.1" viewBox="0 0 100 75" xmlns="http://www.w3.org/2000/svg">
 <defs>
  <linearGradient id="ay" x1="294.7" x2="294.7" y1="362.08" y2="319.39" gradientUnits="userSpaceOnUse">
   <stop stop-color="#D8D9DB" offset="0"/>
   <stop stop-color="#F8F8F9" offset="1"/>
  </linearGradient>
  <linearGradient id="az" x1="283.44" x2="283.44" y1="319.39" y2="294.53" gradientUnits="userSpaceOnUse">
   <stop stop-color="#D8D9DB" offset="0"/>
   <stop stop-color="#F8F8F9" offset="1"/>
  </linearGradient>
  <linearGradient id="ba" x1="308.29" x2="308.29" y1="319.39" y2="294.53" gradientUnits="userSpaceOnUse">
   <stop stop-color="#D8D9DB" offset="0"/>
   <stop stop-color="#F8F8F9" offset="1"/>
  </linearGradient>
  <linearGradient id="aw" x1="125.9" x2="125.9" y1="365.39" y2="322.7" gradientUnits="userSpaceOnUse">
   <stop stop-color="#D8D9DB" offset="0"/>
   <stop stop-color="#F8F8F9" offset="1"/>
  </linearGradient>
  <linearGradient id="ax" x1="114.63" x2="114.63" y1="322.7" y2="297.85" gradientUnits="userSpaceOnUse">
   <stop stop-color="#D8D9DB" offset="0"/>
   <stop stop-color="#F8F8F9" offset="1"/>
  </linearGradient>
  <linearGradient id="at" x1="373.15" x2="373.15" y1="245.76" y2="203.07" gradientUnits="userSpaceOnUse">
   <stop stop-color="#D8D9DB" offset="0"/>
   <stop stop-color="#F8F8F9" offset="1"/>
  </linearGradient>
  <linearGradient id="au" x1="361.88" x2="361.88" y1="203.07" y2="178.21" gradientUnits="userSpaceOnUse">
   <stop stop-color="#D8D9DB" offset="0"/>
   <stop stop-color="#F8F8F9" offset="1"/>
  </linearGradient>
  <linearGradient id="av" x1="386.74" x2="386.74" y1="203.07" y2="178.21" gradientUnits="userSpaceOnUse">
   <stop stop-color="#D8D9DB" offset="0"/>
   <stop stop-color="#F8F8F9" offset="1"/>
  </linearGradient>
  <linearGradient id="aq" x1="277.48" x2="277.48" y1="245.76" y2="203.07" gradientUnits="userSpaceOnUse">
   <stop stop-color="#D8D9DB" offset="0"/>
   <stop stop-color="#F8F8F9" offset="1"/>
  </linearGradient>
  <linearGradient id="ar" x1="266.22" x2="266.22" y1="203.07" y2="178.21" gradientUnits="userSpaceOnUse">
   <stop stop-color="#D8D9DB" offset="0"/>
   <stop stop-color="#F8F8F9" offset="1"/>
  </linearGradient>
  <linearGradient id="as" x1="291.07" x2="291.07" y1="203.07" y2="178.21" gradientUnits="userSpaceOnUse">
   <stop stop-color="#D8D9DB" offset="0"/>
   <stop stop-color="#F8F8F9" offset="1"/>
  </linearGradient>
  <linearGradient id="an" x1="220.07" x2="220.07" y1="362.08" y2="319.39" gradientUnits="userSpaceOnUse">
   <stop stop-color="#D8D9DB" offset="0"/>
   <stop stop-color="#F8F8F9" offset="1"/>
  </linearGradient>
  <linearGradient id="ao" x1="208.81" x2="208.81" y1="319.39" y2="294.53" gradientUnits="userSpaceOnUse">
   <stop stop-color="#D8D9DB" offset="0"/>
   <stop stop-color="#F8F8F9" offset="1"/>
  </linearGradient>
  <linearGradient id="ap" x1="233.67" x2="233.67" y1="319.39" y2="294.53" gradientUnits="userSpaceOnUse">
   <stop stop-color="#D8D9DB" offset="0"/>
   <stop stop-color="#F8F8F9" offset="1"/>
  </linearGradient>
  <linearGradient id="ak" x1="200.73" x2="200.73" y1="245.76" y2="203.07" gradientUnits="userSpaceOnUse">
   <stop stop-color="#D8D9DB" offset="0"/>
   <stop stop-color="#F8F8F9" offset="1"/>
  </linearGradient>
  <linearGradient id="al" x1="189.47" x2="189.47" y1="203.07" y2="178.21" gradientUnits="userSpaceOnUse">
   <stop stop-color="#D8D9DB" offset="0"/>
   <stop stop-color="#F8F8F9" offset="1"/>
  </linearGradient>
  <linearGradient id="am" x1="214.32" x2="214.32" y1="203.07" y2="178.21" gradientUnits="userSpaceOnUse">
   <stop stop-color="#D8D9DB" offset="0"/>
   <stop stop-color="#F8F8F9" offset="1"/>
  </linearGradient>
  <linearGradient id="bb" x1="113.58" x2="113.58" y1="131.76" y2="89.069" gradientUnits="userSpaceOnUse">
   <stop stop-color="#D8D9DB" offset="0"/>
   <stop stop-color="#F8F8F9" offset="1"/>
  </linearGradient>
  <linearGradient id="bc" x1="127.17" x2="127.17" y1="89.069" y2="64.212" gradientUnits="userSpaceOnUse">
   <stop stop-color="#D8D9DB" offset="0"/>
   <stop stop-color="#F8F8F9" offset="1"/>
  </linearGradient>
  <linearGradient id="ai" x1="119.05" x2="119.05" y1="245.76" y2="203.07" gradientUnits="userSpaceOnUse">
   <stop stop-color="#D8D9DB" offset="0"/>
   <stop stop-color="#F8F8F9" offset="1"/>
  </linearGradient>
  <linearGradient id="aj" x1="107.79" x2="107.79" y1="203.07" y2="178.21" gradientUnits="userSpaceOnUse">
   <stop stop-color="#D8D9DB" offset="0"/>
   <stop stop-color="#F8F8F9" offset="1"/>
  </linearGradient>
  <linearGradient id="bn" x1="54.345" x2="54.345" y1="365.39" y2="322.7" gradientUnits="userSpaceOnUse">
   <stop stop-color="#D8D9DB" offset="0"/>
   <stop stop-color="#F8F8F9" offset="1"/>
  </linearGradient>
  <linearGradient id="bo" x1="67.937" x2="67.937" y1="322.7" y2="297.85" gradientUnits="userSpaceOnUse">
   <stop stop-color="#D8D9DB" offset="0"/>
   <stop stop-color="#F8F8F9" offset="1"/>
  </linearGradient>
  <linearGradient id="bk" x1="55.508" x2="55.508" y1="252.78" y2="203.07" gradientUnits="userSpaceOnUse">
   <stop stop-color="#D8D9DB" offset="0"/>
   <stop stop-color="#F8F8F9" offset="1"/>
  </linearGradient>
  <linearGradient id="bl" x1="54.345" x2="54.345" y1="245.76" y2="203.07" gradientUnits="userSpaceOnUse">
   <stop stop-color="#D8D9DB" offset="0"/>
   <stop stop-color="#F8F8F9" offset="1"/>
  </linearGradient>
  <linearGradient id="bm" x1="67.937" x2="67.937" y1="203.07" y2="178.21" gradientUnits="userSpaceOnUse">
   <stop stop-color="#D8D9DB" offset="0"/>
   <stop stop-color="#F8F8F9" offset="1"/>
  </linearGradient>
  <linearGradient id="bj" x1="67.937" x2="67.937" y1="89.069" y2="64.212" gradientTransform="matrix(.16824 0 0 .16824 4.0633 216.48)" gradientUnits="userSpaceOnUse">
   <stop stop-color="#D8D9DB" offset="0"/>
   <stop stop-color="#F8F8F9" offset="1"/>
  </linearGradient>
  <linearGradient id="bi" x1="43.079" x2="43.079" y1="89.069" y2="64.212" gradientTransform="matrix(.16824 0 0 .16824 4.0633 216.48)" gradientUnits="userSpaceOnUse">
   <stop stop-color="#D8D9DB" offset="0"/>
   <stop stop-color="#F8F8F9" offset="1"/>
  </linearGradient>
  <linearGradient id="bh" x1="54.345" x2="54.345" y1="131.76" y2="89.069" gradientTransform="matrix(.16824 0 0 .16824 4.0633 216.48)" gradientUnits="userSpaceOnUse">
   <stop stop-color="#D8D9DB" offset="0"/>
   <stop stop-color="#F8F8F9" offset="1"/>
  </linearGradient>
  <linearGradient id="bd" x1="172.82" x2="172.82" y1="131.76" y2="89.069" gradientUnits="userSpaceOnUse">
   <stop stop-color="#D8D9DB" offset="0"/>
   <stop stop-color="#F8F8F9" offset="1"/>
  </linearGradient>
  <linearGradient id="be" x1="161.55" x2="161.55" y1="89.069" y2="64.212" gradientUnits="userSpaceOnUse">
   <stop stop-color="#D8D9DB" offset="0"/>
   <stop stop-color="#F8F8F9" offset="1"/>
  </linearGradient>
  <linearGradient id="bf" x1="232.06" x2="232.06" y1="131.76" y2="89.069" gradientUnits="userSpaceOnUse">
   <stop stop-color="#D8D9DB" offset="0"/>
   <stop stop-color="#F8F8F9" offset="1"/>
  </linearGradient>
  <linearGradient id="bg" x1="220.79" x2="220.79" y1="89.069" y2="64.212" gradientUnits="userSpaceOnUse">
   <stop stop-color="#D8D9DB" offset="0"/>
   <stop stop-color="#F8F8F9" offset="1"/>
  </linearGradient>
  <linearGradient id="bp" x1="245.65" x2="245.65" y1="89.069" y2="64.212" gradientUnits="userSpaceOnUse">
   <stop stop-color="#D8D9DB" offset="0"/>
   <stop stop-color="#F8F8F9" offset="1"/>
  </linearGradient>
 </defs>
 <g transform="translate(0,-222)">
  <path d="m5.722e-7 222h100v75h-100v-75h5.722e-7z" fill="#d4e7cb" style="paint-order:markers fill stroke"/>
  <g transform="matrix(.25233 0 0 .25233 -5.2843 263.31)" stroke="#595a5c" stroke-linecap="round" stroke-linejoin="round" stroke-miterlimit="10">
   <path d="m306.5 76.81v12.259c0 6.7705-5.4886 12.259-12.259 12.259s-12.259-5.4885-12.259-12.259v-12.259" fill="#f2f2f3"/>
   <path d="m294.25 64.551v12.259h12.259c0-6.7705-5.4886-12.259-12.259-12.259z" fill="#f2f2f3"/>
   <path d="m281.99 76.81h12.259v-12.259c-6.7704 0-12.259 5.4885-12.259 12.259z" fill="#f2f2f3"/>
   <line x1="281.99" x2="306.5" y1="76.81" y2="76.81" fill="none"/>
   <path d="m294.25 74.821c-0.99478 0-1.8012-0.80644-1.8012-1.8012v-3.6024c0-0.99478 0.80643-1.8012 1.8012-1.8012s1.8012 0.80644 1.8012 1.8012v3.6024c0 0.99478-0.80646 1.8012-1.8012 1.8012z" fill="#d8d9db"/>
  </g>
  <g transform="matrix(.25233 0 0 .25233 -5.2843 263.31)" stroke="#595a5c" stroke-linecap="round" stroke-linejoin="round" stroke-miterlimit="10">
   <path d="m335.54 76.81v12.259c0 6.7705-5.4885 12.259-12.259 12.259s-12.259-5.4885-12.259-12.259v-12.259" fill="#f2f2f3"/>
   <path d="m323.28 64.551v12.259h12.259c0-6.7705-5.4885-12.259-12.259-12.259z" fill="#f2f2f3"/>
   <path d="m311.02 76.81h12.259v-12.259c-6.7704 0-12.259 5.4885-12.259 12.259z" fill="#fcb021"/>
   <line x1="311.02" x2="335.54" y1="76.81" y2="76.81" fill="none"/>
   <path d="m323.28 74.821c-0.99482 0-1.8012-0.80644-1.8012-1.8012v-3.6024c0-0.99478 0.80642-1.8012 1.8012-1.8012s1.8012 0.80644 1.8012 1.8012v3.6024c0 0.99478-0.80642 1.8012-1.8012 1.8012z" fill="#d8d9db"/>
  </g>
  <g transform="matrix(.25233 0 0 .25233 -5.2843 263.31)" stroke="#595a5c" stroke-linecap="round" stroke-linejoin="round" stroke-miterlimit="10">
   <path d="m364.57 76.81v12.259c0 6.7705-5.4886 12.259-12.259 12.259s-12.259-5.4885-12.259-12.259v-12.259" fill="#f2f2f3"/>
   <path d="m352.31 64.551v12.259h12.259c0-6.7705-5.4886-12.259-12.259-12.259z" fill="#fcb021"/>
   <path d="m340.05 76.81h12.259v-12.259c-6.7704 0-12.259 5.4885-12.259 12.259z" fill="#f2f2f3"/>
   <line x1="340.05" x2="364.57" y1="76.81" y2="76.81" fill="none"/>
   <path d="m352.31 74.821c-0.99478 0-1.8012-0.80644-1.8012-1.8012v-3.6024c0-0.99478 0.80643-1.8012 1.8012-1.8012s1.8012 0.80644 1.8012 1.8012v3.6024c0 0.99478-0.80643 1.8012-1.8012 1.8012z" fill="#d8d9db"/>
  </g>
  <g transform="matrix(.25233 0 0 .25233 -5.2843 263.31)" stroke="#595a5c" stroke-linecap="round" stroke-linejoin="round" stroke-miterlimit="10">
   <path d="m393.6 76.81v12.259c0 6.7705-5.4885 12.259-12.259 12.259-6.7704 0-12.259-5.4885-12.259-12.259v-12.259" fill="#f2f2f3"/>
   <path d="m381.34 64.551v12.259h12.259c0-6.7705-5.4886-12.259-12.259-12.259z" fill="#f2f2f3"/>
   <path d="m369.08 76.81h12.259v-12.259c-6.7704 0-12.259 5.4885-12.259 12.259z" fill="#f2f2f3"/>
   <line x1="369.08" x2="393.6" y1="76.81" y2="76.81" fill="none"/>
   <path d="m381.34 74.821c-0.99478 0-1.8012-0.80644-1.8012-1.8012v-3.6024c0-0.99478 0.80643-1.8012 1.8012-1.8012 0.99481 0 1.8012 0.80644 1.8012 1.8012v3.6024c0 0.99478-0.80643 1.8012-1.8012 1.8012z" fill="#fcb021"/>
  </g>
  <g transform="matrix(1.1343 0 0 1.1343 -3.2225 -27.726)">
   <path d="m17.192 231.46c-0.13903 3.996-2.7187 7.1814-5.8815 7.1814-0.31003 0-0.61436-0.031-0.91145-0.09 0.76013 0.78426 1.824 1.2724 3.0024 1.2724 2.3096 0 4.1819-1.8723 4.1819-4.1819v-4.1819z" fill="#c7c8ca" stroke-width=".080354"/>
   <path d="m17.192 231.46h-7.9725v4.1819c0 1.1312 0.44986 2.1567 1.1795 2.9095 0.2971 0.059 0.60142 0.09 0.91145 0.09 3.1629 0 5.7425-3.1854 5.8815-7.1814z" fill="url(#bh)" stroke-width=".080354"/>
   <path d="m9.6111 231.46h-0.39128v4.1819c0 0.82017 0.23743 1.5842 0.64561 2.2296-0.19201-0.7383-0.25433-1.5772-0.25433-2.2296z" fill="#fff" stroke-width=".080354"/>
   <path d="m9.2198 231.46h4.1819v-4.1819c-2.3096 0-4.1819 1.8723-4.1819 4.1819z" fill="url(#bi)" stroke="#595a5c" stroke-linecap="round" stroke-linejoin="round" stroke-miterlimit="10" stroke-width=".16824"/>
   <path d="m17.584 231.46h-4.1819v-4.1819c2.3096 0 4.1819 1.8723 4.1819 4.1819z" fill="url(#bj)" stroke="#595a5c" stroke-linecap="round" stroke-linejoin="round" stroke-miterlimit="10" stroke-width=".16824"/>
   <path d="m13.402 227.3v-0.019c-0.72175 0-1.4008 0.18284-1.9933 0.50473-0.29628 0.16095-0.57092 0.35665-0.81847 0.58164-0.09902 0.09-0.19371 0.1847-0.28371 0.28371-0.08999 0.099-0.17531 0.20238-0.25558 0.30972-0.12042 0.16101-0.2295 0.33099-0.32606 0.50875-0.064383 0.11851-0.1232 0.24049-0.1761 0.36556-0.026451 0.0626-0.051421 0.12586-0.07487 0.18991-0.16417 0.44835-0.25376 0.93263-0.25376 1.4379h0.3934c0-2.1769 1.6635-3.9645 3.7885-4.1629z" fill="#fff" stroke-width=".080354"/>
   <line x1="9.2198" x2="17.584" y1="231.46" y2="231.46" fill="none" stroke-width=".080354"/>
   <path d="m17.584 231.46c0-1.6176-0.91907-3.0197-2.2629-3.7152 1.1321 0.74831 1.8793 2.0319 1.8793 3.4905l-3.7983 0.2226v2e-3h4.1819z" fill="#fff" stroke-width=".080354"/>
   <path d="m9.2198 231.46c0-2.3096 1.8723-4.1819 4.1819-4.1819s4.1819 1.8723 4.1819 4.1819" fill="none" stroke="#595a5c" stroke-linecap="round" stroke-linejoin="round" stroke-miterlimit="10" stroke-width=".16824"/>
   <path d="m17.584 231.46v4.1819c0 2.3096-1.8723 4.1819-4.1819 4.1819s-4.1819-1.8723-4.1819-4.1819v-4.1819" fill="none" stroke="#595a5c" stroke-linecap="round" stroke-linejoin="round" stroke-miterlimit="10" stroke-width=".16824"/>
   <line x1="9.2198" x2="17.584" y1="231.46" y2="231.46" fill="none" stroke="#595a5c" stroke-linecap="round" stroke-linejoin="round" stroke-miterlimit="10" stroke-width=".16824"/>
   <line x1="13.402" x2="13.402" y1="227.28" y2="231.46" fill="none" stroke="#595a5c" stroke-linecap="round" stroke-linejoin="round" stroke-miterlimit="10" stroke-width=".16824"/>
   <g transform="matrix(.16824 0 0 .16824 4.0633 216.48)">
    <path d="m55.508 85.036h-8e-6c-2.0171 0-3.6523-1.6352-3.6523-3.6523v-7.3046c0-2.0171 1.6352-3.6523 3.6523-3.6523h8e-6c2.0171 0 3.6523 1.6352 3.6523 3.6523v7.3046c0 2.0171-1.6352 3.6523-3.6523 3.6523z" fill="#d1d3d4"/>
    <path d="m52.923 75.146c0-2.0171 1.6352-3.6523 3.6523-3.6523 0.73522 0 1.4168 0.22167 1.9899 0.59547-0.65173-0.99911-1.7749-1.6624-3.0568-1.6624-2.0171 0-3.6523 1.6352-3.6523 3.6523v7.3046c0 1.2819 0.66325 2.4051 1.6624 3.0568-0.3738-0.57308-0.59551-1.2547-0.59551-1.9899z" fill="#fff"/>
    <path d="m55.508 85.036h-8e-6c-2.0171 0-3.6523-1.6352-3.6523-3.6523v-7.3046c0-2.0171 1.6352-3.6523 3.6523-3.6523h8e-6c2.0171 0 3.6523 1.6352 3.6523 3.6523v7.3046c0 2.0171-1.6352 3.6523-3.6523 3.6523z" fill="none" stroke="#595a5c" stroke-linecap="round" stroke-linejoin="round" stroke-miterlimit="10"/>
   </g>
  </g>
  <g transform="matrix(1.1343 0 0 1.1343 -3.2225 -27.726)">
   <g transform="matrix(.16824 0 0 .16824 4.0633 216.48)" fill="#636466">
    <path d="m28.503 184.92 1.355 0.78418c1.6323 0.94531 2.0923 2.3018 1.1812 3.875-0.91162 1.5742-2.3169 1.8506-3.9487 0.90527l-5.3042-3.0713c-1.6323-0.94531-2.0923-2.3018-1.1812-3.875 0.91162-1.5742 2.3169-1.8506 3.9487-0.90527l0.99072 0.57422-0.87744 1.5156-1.0928-0.63281c-0.72852-0.42187-1.1909-0.26172-1.4863 0.24805-0.29541 0.50976-0.2041 0.99121 0.52441 1.4131l5.5083 3.1895c0.72852 0.42187 1.1763 0.25293 1.4717-0.25684 0.29541-0.50977 0.21875-0.98242-0.50977-1.4043l-1.457-0.84375z"/>
    <path d="m24.126 178.55 1.2368-1.3779 7.5166 6.7471 2.0356-2.2676 1.2524 1.125-3.2725 3.6455z"/>
    <path d="m29.31 173.26 1.4316-1.1748 7.4766 9.1104-1.4316 1.1758z"/>
    <path d="m41.624 173.9 0.77881 1.3574c0.93848 1.6357 0.65674 3.0391-0.92041 3.9443-1.5771 0.90429-2.9312 0.43945-3.8691-1.1963l-3.0493-5.3154c-0.93848-1.6358-0.65674-3.0391 0.92041-3.9443 1.5771-0.9043 2.9312-0.43848 3.8691 1.1963l0.56982 0.99316-1.5186 0.8711-0.62842-1.0947c-0.41894-0.73047-0.89941-0.82324-1.4106-0.53027-0.51074 0.29297-0.67285 0.75488-0.25391 1.4854l3.1665 5.5195c0.41846 0.73047 0.89062 0.80859 1.4019 0.51563 0.51123-0.29297 0.68164-0.74024 0.2627-1.4707l-0.83789-1.46z"/>
    <path d="m45.535 172.18-0.23535 1.1973 1.0498 3.4639-1.7725 0.53711-3.418-11.279 1.7725-0.53711 1.4795 4.8818 0.03223-0.01 0.80859-5.5752 1.7725-0.53711-0.9419 5.7744 4.3599 5.5049-1.8208 0.55176-3.0864-3.9727z"/>
   </g>
   <g transform="matrix(.16824 0 0 .16824 4.0633 216.48)">
    <path d="m78.039 203.07h-47.389v24.857c0 6.7236 2.6741 12.819 7.011 17.294 4.5182 4.6616 10.842 7.5632 17.846 7.5632 13.728 0 24.857-11.129 24.857-24.857v-24.857z" fill="url(#bk)"/>
    <path d="m78.039 203.07c-0.8264 23.752-16.16 42.686-34.96 42.686-1.8429 0-3.6518-0.18451-5.4177-0.53506 4.5182 4.6616 10.842 7.5633 17.846 7.5633 13.728 0 24.857-11.129 24.857-24.857v-24.857z" fill="#c7c8ca"/>
    <path d="m78.039 203.07h-47.389v24.857c0 6.7237 2.674 12.819 7.011 17.294 1.7659 0.35055 3.5748 0.53506 5.4177 0.53506 18.8 0 34.134-18.934 34.96-42.686z" fill="url(#bl)"/>
    <path d="m32.976 203.07h-2.3258v24.857c0 4.8752 1.4113 9.4165 3.8375 13.253-1.1413-4.3885-1.5118-9.3752-1.5118-13.253z" fill="#fff"/>
    <path d="m30.651 203.07h24.857v-24.857c-13.728 0-24.857 11.129-24.857 24.857z" fill="#fcb021" stroke="#595a5c" stroke-linecap="round" stroke-linejoin="round" stroke-miterlimit="10"/>
    <path d="m80.365 203.07h-24.857v-24.857c13.728 0 24.857 11.129 24.857 24.857z" fill="url(#bm)" stroke="#595a5c" stroke-linecap="round" stroke-linejoin="round" stroke-miterlimit="10"/>
    <path d="m55.508 178.32v-0.11282c-4.2901 0-8.3264 1.0868-11.848 3.0001-1.7611 0.95668-3.3936 2.12-4.865 3.4573-0.58858 0.53497-1.1514 1.0978-1.6863 1.6863-0.53492 0.58858-1.042 1.2029-1.5192 1.841-0.71574 0.95706-1.3641 1.9674-1.9381 3.024-0.38266 0.70443-0.73227 1.4294-1.0467 2.1729-0.15723 0.37175-0.30563 0.74813-0.44505 1.1288-0.97577 2.665-1.5083 5.5437-1.5083 8.5467h2.3384c0-12.939 9.8877-23.565 22.519-24.744z" fill="#fff"/>
    <line x1="30.651" x2="80.365" y1="203.07" y2="203.07" fill="none"/>
    <path d="m80.365 203.07c0-9.6151-5.463-17.949-13.451-22.084 6.7292 4.448 11.171 12.078 11.171 20.748l-22.577 1.3231v0.0127h24.857z" fill="#fff"/>
    <path d="m30.651 203.07c0-13.728 11.129-24.857 24.857-24.857s24.857 11.129 24.857 24.857" fill="none" stroke="#595a5c" stroke-linecap="round" stroke-linejoin="round" stroke-miterlimit="10"/>
    <path d="m80.365 203.07v24.857c0 13.728-11.129 24.857-24.857 24.857s-24.857-11.129-24.857-24.857v-24.857" fill="none" stroke="#595a5c" stroke-linecap="round" stroke-linejoin="round" stroke-miterlimit="10"/>
    <line x1="30.651" x2="80.365" y1="203.07" y2="203.07" fill="none" stroke="#595a5c" stroke-linecap="round" stroke-linejoin="round" stroke-miterlimit="10"/>
    <line x1="55.508" x2="55.508" y1="178.21" y2="203.07" fill="none" stroke="#595a5c" stroke-linecap="round" stroke-linejoin="round" stroke-miterlimit="10"/>
    <path d="m55.508 199.04h-8e-6c-2.0171 0-3.6523-1.6352-3.6523-3.6523v-7.3046c0-2.0171 1.6352-3.6523 3.6523-3.6523h8e-6c2.0171 0 3.6523 1.6352 3.6523 3.6523v7.3046c0 2.0171-1.6352 3.6523-3.6523 3.6523z" fill="#d1d3d4"/>
    <path d="m52.923 189.15c0-2.0171 1.6352-3.6523 3.6523-3.6523 0.73522 0 1.4168 0.22166 1.9899 0.59546-0.65173-0.99912-1.7749-1.6624-3.0568-1.6624-2.0171 0-3.6523 1.6352-3.6523 3.6523v7.3046c0 1.2819 0.66325 2.4051 1.6624 3.0568-0.3738-0.57308-0.59551-1.2547-0.59551-1.9899z" fill="#fff"/>
    <path d="m55.508 199.04h-8e-6c-2.0171 0-3.6523-1.6352-3.6523-3.6523v-7.3046c0-2.0171 1.6352-3.6523 3.6523-3.6523h8e-6c2.0171 0 3.6523 1.6352 3.6523 3.6523v7.3046c0 2.0171-1.6352 3.6523-3.6523 3.6523z" fill="none" stroke="#595a5c" stroke-linecap="round" stroke-linejoin="round" stroke-miterlimit="10"/>
   </g>
  </g>
  <g transform="matrix(1.1343 0 0 1.1343 -.67138 -27.726)">
   <g transform="matrix(.16824 0 0 .16824 4.0633 216.48)" fill="#636466">
    <path d="m132.17 173.07-0.44141 1.5029c-0.53125 1.8096-1.7398 2.5781-3.4849 2.0654-1.7456-0.5127-2.3467-1.8125-1.815-3.6221l1.7271-5.8818c0.53173-1.8106 1.7402-2.5781 3.4854-2.0664 1.7451 0.5127 2.3467 1.8125 1.8149 3.623l-0.32276 1.0986-1.6807-0.49414 0.35596-1.2119c0.2373-0.80762-0.0278-1.2188-0.59326-1.3848-0.56592-0.16601-1.0112 0.0361-1.2485 0.84375l-1.7939 6.1084c-0.23731 0.80762 0.0327 1.2031 0.59814 1.3691 0.56592 0.16602 1.0068-0.0205 1.2441-0.82812l0.47461-1.6162z"/>
    <path d="m137.3 167.3 1.6314 0.87597-4.7793 8.8994 2.6846 1.4414-0.79639 1.4834-4.3159-2.3184z"/>
    <path d="m143.68 171.1 1.479 1.1162-7.103 9.4102-1.479-1.1162z"/>
    <path d="m145.95 183.22-1.1367 1.0772c-1.3686 1.2969-2.7993 1.3535-4.0503 0.0332-1.251-1.3193-1.1172-2.7451 0.25195-4.042l4.4487-4.2158c1.3686-1.2969 2.7998-1.3545 4.0503-0.0342 1.251 1.3203 1.1172 2.7461-0.25147 4.043l-0.83105 0.78711-1.2046-1.2705 0.9165-0.86914c0.61133-0.5791 0.58838-1.0674 0.18311-1.4951-0.40528-0.42773-0.89209-0.47656-1.5034 0.10254l-4.6201 4.377c-0.61084 0.5791-0.57617 1.0566-0.1709 1.4844 0.40528 0.42774 0.88037 0.48828 1.4912-0.0908l1.2222-1.1582z"/>
    <path d="m148.54 186.61-1.2188 0.0547-3.1167 1.8408-0.94189-1.5947 10.147-5.9922 0.94141 1.5947-4.3921 2.5938 0.0171 0.0283 5.6074-0.53516 0.94189 1.5947-5.8325 0.45312-4.3144 5.5391-0.96728-1.6377 3.1284-3.9394z"/>
   </g>
   <g transform="matrix(.16824 0 0 .16824 4.0633 216.48)">
    <path d="m142.75 203.07c-0.8264 23.752-16.16 42.686-34.96 42.686-1.8429 0-3.6518-0.18451-5.4177-0.53506 4.5182 4.6616 10.842 7.5633 17.846 7.5633 13.728 0 24.857-11.129 24.857-24.857v-24.857z" fill="#c7c8ca"/>
    <path d="m142.75 203.07h-47.389v24.857c0 6.7237 2.674 12.819 7.011 17.294 1.7659 0.35055 3.5748 0.53506 5.4177 0.53506 18.8 0 34.134-18.934 34.96-42.686z" fill="url(#ai)"/>
    <path d="m97.683 203.07h-2.3258v24.857c0 4.8752 1.4113 9.4165 3.8375 13.253-1.1413-4.3885-1.5118-9.3752-1.5118-13.253z" fill="#fff"/>
    <path d="m95.357 203.07h24.857v-24.857c-13.728 0-24.857 11.129-24.857 24.857z" fill="url(#aj)" stroke="#595a5c" stroke-linecap="round" stroke-linejoin="round" stroke-miterlimit="10"/>
    <path d="m145.07 203.07h-24.857v-24.857c13.728 0 24.857 11.129 24.857 24.857z" fill="#fcb021" stroke="#595a5c" stroke-linecap="round" stroke-linejoin="round" stroke-miterlimit="10"/>
    <path d="m120.21 178.32v-0.11282c-4.2901 0-8.3264 1.0868-11.848 3.0001-1.7611 0.95668-3.3936 2.12-4.865 3.4573-0.58857 0.53497-1.1514 1.0978-1.6863 1.6863-0.53493 0.58858-1.042 1.2029-1.5192 1.841-0.71575 0.95706-1.3641 1.9674-1.9382 3.024-0.38266 0.70443-0.73227 1.4294-1.0467 2.1729-0.15723 0.37175-0.30563 0.74813-0.44505 1.1288-0.97578 2.665-1.5083 5.5437-1.5083 8.5467h2.3384c0-12.939 9.8877-23.565 22.519-24.744z" fill="#fff"/>
    <line x1="95.357" x2="145.07" y1="203.07" y2="203.07" fill="none"/>
    <path d="m145.07 203.07c0-9.6151-5.463-17.949-13.451-22.084 6.7292 4.448 11.171 12.078 11.171 20.748l-22.577 1.3231v0.0127h24.857z" fill="#fff"/>
    <path d="m95.357 203.07c0-13.728 11.129-24.857 24.857-24.857s24.857 11.129 24.857 24.857" fill="none" stroke="#595a5c" stroke-linecap="round" stroke-linejoin="round" stroke-miterlimit="10"/>
    <path d="m145.07 203.07v24.857c0 13.728-11.129 24.857-24.857 24.857s-24.857-11.129-24.857-24.857v-24.857" fill="none" stroke="#595a5c" stroke-linecap="round" stroke-linejoin="round" stroke-miterlimit="10"/>
    <line x1="95.357" x2="145.07" y1="203.07" y2="203.07" fill="none" stroke="#595a5c" stroke-linecap="round" stroke-linejoin="round" stroke-miterlimit="10"/>
    <line x1="120.21" x2="120.21" y1="178.21" y2="203.07" fill="none" stroke="#595a5c" stroke-linecap="round" stroke-linejoin="round" stroke-miterlimit="10"/>
    <path d="m120.21 199.04h-1e-5c-2.0171 0-3.6523-1.6352-3.6523-3.6523v-7.3046c0-2.0171 1.6352-3.6523 3.6523-3.6523h1e-5c2.0171 0 3.6523 1.6352 3.6523 3.6523v7.3046c0 2.0171-1.6352 3.6523-3.6523 3.6523z" fill="#d1d3d4"/>
    <path d="m117.63 189.15c0-2.0171 1.6352-3.6523 3.6523-3.6523 0.73523 0 1.4168 0.22166 1.9899 0.59546-0.65173-0.99912-1.7749-1.6624-3.0568-1.6624-2.0171 0-3.6523 1.6352-3.6523 3.6523v7.3046c0 1.2819 0.66324 2.4051 1.6624 3.0568-0.37381-0.57308-0.59552-1.2547-0.59552-1.9899z" fill="#fff"/>
    <path d="m120.21 199.04h-1e-5c-2.0171 0-3.6523-1.6352-3.6523-3.6523v-7.3046c0-2.0171 1.6352-3.6523 3.6523-3.6523h1e-5c2.0171 0 3.6523 1.6352 3.6523 3.6523v7.3046c0 2.0171-1.6352 3.6523-3.6523 3.6523z" fill="none" stroke="#595a5c" stroke-linecap="round" stroke-linejoin="round" stroke-miterlimit="10"/>
   </g>
  </g>
  <g transform="matrix(.19084 0 0 .19084 4.9816 217.84)">
   <path d="m137.28 89.069c-0.8264 23.752-16.16 42.686-34.96 42.686-1.8429 0-3.6518-0.18451-5.4177-0.53506 4.5182 4.6616 10.842 7.5633 17.846 7.5633 13.728 0 24.857-11.129 24.857-24.857v-24.857z" fill="#c7c8ca"/>
   <path d="m137.28 89.069h-47.389v24.857c0 6.7237 2.674 12.819 7.011 17.294 1.7659 0.35055 3.5748 0.53506 5.4177 0.53506 18.8 0 34.134-18.934 34.96-42.686z" fill="url(#bb)"/>
   <path d="m92.213 89.069h-2.3258v24.857c0 4.8752 1.4113 9.4164 3.8375 13.253-1.1413-4.3885-1.5118-9.3752-1.5118-13.253z" fill="#fff"/>
   <path d="m89.888 89.069h24.857v-24.857c-13.728 0-24.857 11.129-24.857 24.857z" fill="#fcb021"/>
   <path d="m139.6 89.069h-24.857v-24.857c13.728 0 24.857 11.129 24.857 24.857z" fill="url(#bc)" stroke="#595a5c" stroke-linecap="round" stroke-linejoin="round" stroke-miterlimit="10"/>
   <path d="m114.74 64.325v-0.11283c-4.2901 0-8.3264 1.0868-11.848 3.0001-1.761 0.95667-3.3936 2.12-4.865 3.4573-0.58858 0.53497-1.1514 1.0978-1.6863 1.6863-0.53492 0.58857-1.042 1.2029-1.5192 1.841-0.71574 0.95706-1.3641 1.9674-1.9381 3.0241-0.38267 0.70444-0.73227 1.4294-1.0467 2.1729-0.15723 0.37174-0.30563 0.74811-0.44505 1.1288-0.97578 2.665-1.5083 5.5437-1.5083 8.5467h2.3384c0-12.939 9.8877-23.565 22.519-24.744z" fill="#fff"/>
   <line x1="89.888" x2="139.6" y1="89.069" y2="89.069" fill="none"/>
   <path d="m139.6 89.069c0-9.6151-5.463-17.949-13.451-22.084 6.7292 4.448 11.171 12.078 11.171 20.748l-22.577 1.3231v0.01272h24.857z" fill="#fff"/>
   <path d="m89.888 89.069c0-13.728 11.129-24.857 24.857-24.857s24.857 11.129 24.857 24.857" fill="none" stroke="#595a5c" stroke-linecap="round" stroke-linejoin="round" stroke-miterlimit="10"/>
   <path d="m139.6 89.069v24.857c0 13.728-11.129 24.857-24.857 24.857s-24.857-11.129-24.857-24.857v-24.857" fill="none" stroke="#595a5c" stroke-linecap="round" stroke-linejoin="round" stroke-miterlimit="10"/>
   <line x1="89.888" x2="139.6" y1="89.069" y2="89.069" fill="none" stroke="#595a5c" stroke-linecap="round" stroke-linejoin="round" stroke-miterlimit="10"/>
   <line x1="114.74" x2="114.74" y1="64.212" y2="89.069" fill="none" stroke="#595a5c" stroke-linecap="round" stroke-linejoin="round" stroke-miterlimit="10"/>
   <path d="m114.74 85.036h-1e-5c-2.0171 0-3.6523-1.6352-3.6523-3.6523v-7.3046c0-2.0171 1.6352-3.6523 3.6523-3.6523h1e-5c2.0171 0 3.6523 1.6352 3.6523 3.6523v7.3046c0 2.0171-1.6352 3.6523-3.6523 3.6523z" fill="#d1d3d4"/>
   <path d="m112.16 75.146c0-2.0171 1.6352-3.6523 3.6523-3.6523 0.73522 0 1.4168 0.22167 1.9899 0.59547-0.65173-0.99911-1.7749-1.6624-3.0568-1.6624-2.0171 0-3.6523 1.6352-3.6523 3.6523v7.3046c0 1.2819 0.66326 2.4051 1.6624 3.0568-0.3738-0.57308-0.59551-1.2547-0.59551-1.9899z" fill="#fff"/>
   <path d="m114.74 85.036h-1e-5c-2.0171 0-3.6523-1.6352-3.6523-3.6523v-7.3046c0-2.0171 1.6352-3.6523 3.6523-3.6523h1e-5c2.0171 0 3.6523 1.6352 3.6523 3.6523v7.3046c0 2.0171-1.6352 3.6523-3.6523 3.6523z" fill="none" stroke="#595a5c" stroke-linecap="round" stroke-linejoin="round" stroke-miterlimit="10"/>
  </g>
  <g transform="matrix(.19084 0 0 .19084 8.5766 217.84)">
   <path d="m196.51 89.069c-0.8264 23.752-16.16 42.686-34.96 42.686-1.8429 0-3.6518-0.18451-5.4177-0.53506 4.5182 4.6616 10.842 7.5633 17.846 7.5633 13.728 0 24.857-11.129 24.857-24.857v-24.857z" fill="#c7c8ca"/>
   <path d="m196.51 89.069h-47.389v24.857c0 6.7237 2.674 12.819 7.011 17.294 1.7659 0.35055 3.5748 0.53506 5.4177 0.53506 18.8 0 34.134-18.934 34.96-42.686z" fill="url(#bd)"/>
   <path d="m151.45 89.069h-2.3258v24.857c0 4.8752 1.4113 9.4164 3.8375 13.253-1.1413-4.3885-1.5118-9.3752-1.5118-13.253z" fill="#fff"/>
   <path d="m149.12 89.069h24.857v-24.857c-13.728 0-24.857 11.129-24.857 24.857z" fill="url(#be)" stroke="#595a5c" stroke-linecap="round" stroke-linejoin="round" stroke-miterlimit="10"/>
   <path d="m198.84 89.069h-24.857v-24.857c13.728 0 24.857 11.129 24.857 24.857z" fill="#fcb021"/>
   <path d="m173.98 64.325v-0.11283c-4.2901 0-8.3264 1.0868-11.848 3.0001-1.7611 0.95667-3.3936 2.12-4.865 3.4573-0.58858 0.53497-1.1514 1.0978-1.6863 1.6863-0.53493 0.58857-1.042 1.2029-1.5192 1.841-0.71575 0.95706-1.3641 1.9674-1.9381 3.0241-0.38266 0.70444-0.73227 1.4294-1.0467 2.1729-0.15722 0.37174-0.30563 0.74811-0.44505 1.1288-0.97577 2.665-1.5084 5.5437-1.5084 8.5467h2.3384c0-12.939 9.8877-23.565 22.519-24.744z" fill="#fff"/>
   <line x1="149.12" x2="198.84" y1="89.069" y2="89.069" fill="none"/>
   <path d="m198.84 89.069c0-9.6151-5.463-17.949-13.451-22.084 6.7292 4.448 11.171 12.078 11.171 20.748l-22.577 1.3231v0.01272h24.857z" fill="#fff"/>
   <path d="m149.12 89.069c0-13.728 11.129-24.857 24.857-24.857s24.857 11.129 24.857 24.857" fill="none" stroke="#595a5c" stroke-linecap="round" stroke-linejoin="round" stroke-miterlimit="10"/>
   <path d="m198.84 89.069v24.857c0 13.728-11.129 24.857-24.857 24.857s-24.857-11.129-24.857-24.857v-24.857" fill="none" stroke="#595a5c" stroke-linecap="round" stroke-linejoin="round" stroke-miterlimit="10"/>
   <line x1="149.12" x2="198.84" y1="89.069" y2="89.069" fill="none" stroke="#595a5c" stroke-linecap="round" stroke-linejoin="round" stroke-miterlimit="10"/>
   <line x1="173.98" x2="173.98" y1="64.212" y2="89.069" fill="none" stroke="#595a5c" stroke-linecap="round" stroke-linejoin="round" stroke-miterlimit="10"/>
   <path d="m173.98 85.036h-1e-5c-2.0171 0-3.6523-1.6352-3.6523-3.6523v-7.3046c0-2.0171 1.6352-3.6523 3.6523-3.6523h1e-5c2.0171 0 3.6523 1.6352 3.6523 3.6523v7.3046c0 2.0171-1.6352 3.6523-3.6523 3.6523z" fill="#d1d3d4"/>
   <path d="m171.4 75.146c0-2.0171 1.6352-3.6523 3.6523-3.6523 0.73523 0 1.4168 0.22167 1.9899 0.59547-0.65174-0.99911-1.7749-1.6624-3.0568-1.6624-2.0171 0-3.6523 1.6352-3.6523 3.6523v7.3046c0 1.2819 0.66325 2.4051 1.6624 3.0568-0.37379-0.57308-0.5955-1.2547-0.5955-1.9899z" fill="#fff"/>
   <path d="m173.98 85.036h-1e-5c-2.0171 0-3.6523-1.6352-3.6523-3.6523v-7.3046c0-2.0171 1.6352-3.6523 3.6523-3.6523h1e-5c2.0171 0 3.6523 1.6352 3.6523 3.6523v7.3046c0 2.0171-1.6352 3.6523-3.6523 3.6523z" fill="none" stroke="#595a5c" stroke-linecap="round" stroke-linejoin="round" stroke-miterlimit="10"/>
  </g>
  <g transform="matrix(.19084 0 0 .19084 12.172 217.84)">
   <path d="m255.75 89.069c-0.8264 23.752-16.16 42.686-34.96 42.686-1.8429 0-3.6518-0.18451-5.4177-0.53506 4.5182 4.6616 10.842 7.5633 17.846 7.5633 13.728 0 24.857-11.129 24.857-24.857v-24.857z" fill="#c7c8ca"/>
   <path d="m255.75 89.069h-47.389v24.857c0 6.7237 2.674 12.819 7.011 17.294 1.7659 0.35055 3.5748 0.53506 5.4177 0.53506 18.8 0 34.134-18.934 34.96-42.686z" fill="url(#bf)"/>
   <path d="m210.69 89.069h-2.3258v24.857c0 4.8752 1.4113 9.4164 3.8375 13.253-1.1413-4.3885-1.5118-9.3752-1.5118-13.253z" fill="#fff"/>
   <path d="m208.36 89.069h24.857v-24.857c-13.728 0-24.857 11.129-24.857 24.857z" fill="url(#bg)" stroke="#595a5c" stroke-linecap="round" stroke-linejoin="round" stroke-miterlimit="10"/>
   <path d="m258.08 89.069h-24.857v-24.857c13.728 0 24.857 11.129 24.857 24.857z" fill="url(#bp)" stroke="#595a5c" stroke-linecap="round" stroke-linejoin="round" stroke-miterlimit="10"/>
   <path d="m233.22 64.325v-0.11283c-4.2901 0-8.3264 1.0868-11.848 3.0001-1.7611 0.95667-3.3936 2.12-4.865 3.4573-0.58858 0.53497-1.1514 1.0978-1.6863 1.6863-0.53493 0.58857-1.042 1.2029-1.5192 1.841-0.71574 0.95706-1.3641 1.9674-1.9381 3.0241-0.38268 0.70444-0.73227 1.4294-1.0467 2.1729-0.15725 0.37174-0.30564 0.74811-0.44506 1.1288-0.97578 2.665-1.5083 5.5437-1.5083 8.5467h2.3384c0-12.939 9.8877-23.565 22.519-24.744z" fill="#fff"/>
   <line x1="208.36" x2="258.08" y1="89.069" y2="89.069" fill="none"/>
   <path d="m258.08 89.069c0-9.6151-5.463-17.949-13.451-22.084 6.7292 4.448 11.171 12.078 11.171 20.748l-22.577 1.3231v0.01272h24.857z" fill="#fff"/>
   <path d="m208.36 89.069c0-13.728 11.129-24.857 24.857-24.857s24.857 11.129 24.857 24.857" fill="none" stroke="#595a5c" stroke-linecap="round" stroke-linejoin="round" stroke-miterlimit="10"/>
   <path d="m258.08 89.069v24.857c0 13.728-11.129 24.857-24.857 24.857s-24.857-11.129-24.857-24.857v-24.857" fill="none" stroke="#595a5c" stroke-linecap="round" stroke-linejoin="round" stroke-miterlimit="10"/>
   <line x1="208.36" x2="258.08" y1="89.069" y2="89.069" fill="none" stroke="#595a5c" stroke-linecap="round" stroke-linejoin="round" stroke-miterlimit="10"/>
   <line x1="233.22" x2="233.22" y1="64.212" y2="89.069" fill="none" stroke="#595a5c" stroke-linecap="round" stroke-linejoin="round" stroke-miterlimit="10"/>
   <path d="m233.22 85.036h-2e-5c-2.0171 0-3.6523-1.6352-3.6523-3.6523v-7.3046c0-2.0171 1.6352-3.6523 3.6523-3.6523h2e-5c2.0171 0 3.6523 1.6352 3.6523 3.6523v7.3046c0 2.0171-1.6352 3.6523-3.6523 3.6523z" fill="#fcb021"/>
   <path d="m230.63 75.146c0-2.0171 1.6352-3.6523 3.6523-3.6523 0.73523 0 1.4168 0.22167 1.9899 0.59547-0.65173-0.99911-1.7749-1.6624-3.0568-1.6624-2.0171 0-3.6523 1.6352-3.6523 3.6523v7.3046c0 1.2819 0.66325 2.4051 1.6624 3.0568-0.3738-0.57308-0.59551-1.2547-0.59551-1.9899z" fill="#fff"/>
   <path d="m233.22 85.036h-2e-5c-2.0171 0-3.6523-1.6352-3.6523-3.6523v-7.3046c0-2.0171 1.6352-3.6523 3.6523-3.6523h2e-5c2.0171 0 3.6523 1.6352 3.6523 3.6523v7.3046c0 2.0171-1.6352 3.6523-3.6523 3.6523z" fill="none" stroke="#595a5c" stroke-linecap="round" stroke-linejoin="round" stroke-miterlimit="10"/>
  </g>
  <g transform="matrix(1.1343 0 0 1.1343 13.634 -27.726)">
   <g transform="matrix(.16824 0 0 .16824 4.0633 216.48)" fill="#636466">
    <path d="m181.77 176.28-0.0225 0.0166 2.5772 4.5732-1.7236 1.2227-6.562-7.3574 1.2212-0.86621 5.1348 5.8301 0.0225-0.0166-3.8789-6.7217 1.21-0.8584 5.1211 5.9082 0.0234-0.0166-3.8662-6.7988 1.0957-0.77832 4.7812 8.6211-1.666 1.1836-3.4678-3.9414z"/>
    <path d="m189.64 177.74-1.4199 0.59473-3.7812-9.0361 1.4199-0.59472 1.6201 3.873 1.6143-0.67578-1.6211-3.8721 1.4463-0.60547 3.7812 9.0361-1.4463 0.60547-1.6201-3.873-1.6143 0.67578z"/>
    <path d="m193.83 170.36 2.0644-0.45411 0.30079 1.3672-2.0645 0.4541 0.61621 2.8027 2.5977-0.57129 0.30078 1.3672-4.1016 0.90234-2.1045-9.5703 4.1016-0.90235 0.30078 1.3672-2.5977 0.57129z"/>
    <path d="m199.63 169.51 2.1104-0.10644 0.0703 1.3975-2.1104 0.10644 0.14356 2.8652 2.6553-0.13379 0.0703 1.3984-4.1924 0.20996-0.49219-9.7832 4.1934-0.21094 0.0703 1.3975-2.6553 0.13379 0.13672 2.7256z"/>
    <path d="m204.39 165.35 1.5303 0.16602-0.90625 8.3496 2.5186 0.27344-0.15039 1.3916-4.0498-0.43945z"/>
    <path d="m217.73 164.81-4.0127 9.4424c-0.37207 0.875-0.12109 1.3525 0.49121 1.6133 0.61231 0.25977 1.1309 0.1084 1.502-0.76562l4.0127-9.4434 1.8193 0.77344-3.9609 9.3203c-0.83301 1.958-2.2871 2.6611-4.1758 1.8584-1.8887-0.80176-2.3926-2.3379-1.5606-4.2959l3.9609-9.3203z"/>
    <path d="m228.24 174.92-1.0312 1.3867c-1.2705 1.708-2.7852 2.0254-4.4619 0.77832l-0.792-0.58984-2.9824 4.0088-1.6768-1.2471 7.9365-10.67 2.4697 1.8369c1.6768 1.2471 1.8076 2.7891 0.53809 4.4961zm-2.4648-3.5615-2.6865 3.6123 0.792 0.58984c0.53418 0.39649 1.0049 0.36817 1.5713-0.39355l1.1904-1.6006c0.56739-0.76269 0.45899-1.2217-0.0742-1.6191l-0.79297-0.58886z"/>
   </g>
   <path d="m34.239 250.64h-0.39127v4.1819c0 0.82017 0.23742 1.5842 0.6456 2.2296-0.19201-0.73831-0.25433-1.5772-0.25433-2.2296z" fill="#fff" stroke-width=".080354"/>
   <g transform="matrix(.16824 0 0 .16824 4.0633 216.48)">
    <path d="m224.43 203.07c-0.8264 23.752-16.16 42.686-34.96 42.686-1.8429 0-3.6518-0.18452-5.4177-0.53508 4.5182 4.6616 10.842 7.5633 17.846 7.5633 13.728 0 24.857-11.129 24.857-24.857v-24.857z" fill="#c7c8ca"/>
    <path d="m224.43 203.07h-47.389v24.857c0 6.7237 2.674 12.819 7.011 17.294 1.7659 0.35056 3.5748 0.53508 5.4177 0.53508 18.8 0 34.134-18.934 34.96-42.686z" fill="url(#ak)"/>
    <path d="m177.04 203.07h24.857v-24.857c-13.728 0-24.857 11.129-24.857 24.857z" fill="url(#al)" stroke="#595a5c" stroke-linecap="round" stroke-linejoin="round" stroke-miterlimit="10"/>
    <path d="m226.75 203.07h-24.857v-24.857c13.728 0 24.857 11.129 24.857 24.857z" fill="url(#am)" stroke="#595a5c" stroke-linecap="round" stroke-linejoin="round" stroke-miterlimit="10"/>
    <path d="m201.9 178.32v-0.11282c-4.2901 0-8.3264 1.0868-11.848 3.0001-1.7611 0.95668-3.3936 2.12-4.865 3.4573-0.58858 0.53496-1.1514 1.0978-1.6863 1.6863-0.53493 0.58858-1.042 1.2029-1.5192 1.841-0.71575 0.95706-1.3641 1.9674-1.9382 3.024-0.38267 0.70444-0.73226 1.4294-1.0467 2.1729-0.15724 0.37175-0.30563 0.74811-0.44505 1.1288-0.97579 2.665-1.5084 5.5437-1.5084 8.5467h2.3384c0-12.939 9.8877-23.565 22.519-24.744z" fill="#fff"/>
    <line x1="177.04" x2="226.75" y1="203.07" y2="203.07" fill="none"/>
    <path d="m226.75 203.07c0-9.6151-5.463-17.949-13.451-22.084 6.7292 4.448 11.171 12.078 11.171 20.748l-22.577 1.3231v0.0127h24.857z" fill="#fff"/>
    <path d="m177.04 203.07c0-13.728 11.129-24.857 24.857-24.857s24.857 11.129 24.857 24.857" fill="none" stroke="#595a5c" stroke-linecap="round" stroke-linejoin="round" stroke-miterlimit="10"/>
    <path d="m226.75 203.07v24.857c0 13.728-11.129 24.857-24.857 24.857s-24.857-11.129-24.857-24.857v-24.857" fill="none" stroke="#595a5c" stroke-linecap="round" stroke-linejoin="round" stroke-miterlimit="10"/>
    <line x1="177.04" x2="226.75" y1="203.07" y2="203.07" fill="none" stroke="#595a5c" stroke-linecap="round" stroke-linejoin="round" stroke-miterlimit="10"/>
    <line x1="201.9" x2="201.9" y1="178.21" y2="203.07" fill="none" stroke="#595a5c" stroke-linecap="round" stroke-linejoin="round" stroke-miterlimit="10"/>
   </g>
   <g transform="matrix(.16824 0 0 .16824 4.0633 216.48)">
    <path d="m201.9 199.94h-1e-5c-2.5684 0-4.6505-2.0821-4.6505-4.6505v-9.301c0-2.5684 2.0821-4.6505 4.6505-4.6505h1e-5c2.5684 0 4.6505 2.0821 4.6505 4.6505v9.301c0 2.5684-2.0821 4.6505-4.6505 4.6505z" fill="#fcb021"/>
    <path d="m198.6 187.35c0-2.5684 2.0821-4.6504 4.6505-4.6504 0.93615 0 1.8041 0.28226 2.5338 0.75821-0.82985-1.2722-2.26-2.1167-3.8922-2.1167-2.5684 0-4.6505 2.0821-4.6505 4.6504v9.301c0 1.6322 0.84453 3.0624 2.1167 3.8922-0.47595-0.72971-0.75827-1.5976-0.75827-2.5338z" fill="#fff"/>
    <path d="m201.9 199.94h-1e-5c-2.5684 0-4.6505-2.0821-4.6505-4.6505v-9.301c0-2.5684 2.0821-4.6505 4.6505-4.6505h1e-5c2.5684 0 4.6505 2.0821 4.6505 4.6505v9.301c0 2.5684-2.0821 4.6505-4.6505 4.6505z" fill="none" stroke="#595a5c" stroke-linecap="round" stroke-linejoin="round" stroke-miterlimit="10"/>
   </g>
   <path d="m37.738 247.7c-0.0942 0.12528-0.18409 0.26687-0.2654 0.42471 0.12206-0.0978 0.26345-0.15887 0.40966-0.18326v1.6634c-1e-5 0.0384 0.0163 0.0701 0.04283 0.092 0.0265 0.022 0.06331 0.0346 0.104 0.0346 0.04067 0 0.07747-0.0126 0.10399-0.0346 0.02653-0.0219 0.04286-0.0537 0.04283-0.092v-1.6634c0.14622 0.0244 0.2876 0.0855 0.40966 0.18326-0.0813-0.15784-0.17118-0.29941-0.26535-0.42469-0.09417-0.12527-0.19263-0.23428-0.29109-0.32699-0.09847 0.0927-0.19695 0.20169-0.29113 0.32697z" fill="#636466" stroke-width=".080354"/>
  </g>
  <g transform="matrix(1.1343 0 0 1.1343 13.741 -27.726)">
   <g transform="matrix(.16824 0 0 .16824 4.0633 216.48)" fill="#636466">
    <path d="m250.91 183.62-0.0166 0.0225 3.8232 3.5986-1.2812 1.6816-8.458-5.0693 0.90723-1.1924 6.6406 4.0371 0.0176-0.0225-5.708-5.2617 0.89941-1.1807 6.6514 4.1152 0.0166-0.0225-5.7178-5.3408 0.81445-1.0693 7.1357 6.8076-1.2392 1.626-4.4854-2.7295z"/>
    <path d="m258.87 182.65-1.1777 0.99219-6.3125-7.499 1.1777-0.99121 2.7061 3.2129 1.3388-1.127-2.706-3.2139 1.2002-1.0098 6.3125 7.498-1.2002 1.0107-2.7051-3.2139-1.3389 1.127z"/>
    <path d="m260.65 174.36 1.832-1.0527 0.69727 1.2129-1.832 1.0527 1.4297 2.4873 2.3047-1.3252 0.69726 1.2129-3.6387 2.0918-4.8818-8.4912 3.6396-2.0918 0.69726 1.2129-2.3047 1.3252z"/>
    <path d="m265.91 171.81 1.9814-0.73438 0.48633 1.3115-1.9814 0.73536 0.99805 2.6904 2.4932-0.92481 0.48731 1.3115-3.9375 1.4609-3.4072-9.1865 3.9375-1.46 0.48633 1.3125-2.4932 0.9248z"/>
    <path d="m269.23 166.4 1.5098-0.29785 1.6211 8.2402 2.4854-0.48926 0.27051 1.374-3.9961 0.78515z"/>
    <path d="m279.79 161.71 3.2891 0.32324c2.0801 0.20508 2.9873 1.459 2.7783 3.5762l-0.6582 6.6924c-0.20899 2.1182-1.3438 3.1709-3.4228 2.9658l-3.29-0.32422zm1.8936 2.0947-0.93066 9.4531 1.1719 0.11524c0.66114 0.0654 1.0918-0.23633 1.1856-1.1816l0.67676-6.8809c0.0937-0.94531-0.26953-1.3252-0.93164-1.3906z"/>
    <path d="m289.1 166.26c0.71973-2.0029 2.1856-2.7686 4.1172-2.0752 1.9316 0.69434 2.5752 2.2178 1.8564 4.2207l-2.3389 6.5098c-0.71973 2.0029-2.1856 2.7676-4.1172 2.0742-1.9307-0.69336-2.5752-2.2178-1.8555-4.2207zm-0.41602 7.3408c-0.32128 0.89453-0.0498 1.375 0.57618 1.6006 0.62597 0.22461 1.1416 0.0264 1.4629-0.86816l2.4277-6.7598c0.32129-0.89453 0.0498-1.375-0.57617-1.6006-0.62598-0.22461-1.1406-0.0264-1.4619 0.86816z"/>
    <path d="m300.51 175.23-0.0303-0.0234-4.8086 5.2627-2.3086-1.7051 6.7119-11.583 1.6357 1.208-5.3467 9.0947 0.0312 0.0225 7.0274-7.8525 1.6211 1.1973-5.4522 9.1104 0.0303 0.0225 7.1338-7.8682 1.4678 1.084-9.0967 9.8213-2.2314-1.6484 3.6152-6.1426z"/>
    <path d="m309.43 180.31-0.0225-0.0312-7.751 5.7256-1.1182-1.5137 10.702-7.9043 1.5586 2.1094-5.1533 6.4287 0.0234 0.0303 6.4062-4.7305 1.1064 1.498-10.703 7.9043-1.2754-1.7285 6.2266-7.7881z"/>
   </g>
   <path d="m47.151 250.64h-0.39128v4.1819c0 0.82017 0.23743 1.5842 0.64561 2.2296-0.19202-0.73831-0.25433-1.5772-0.25433-2.2296z" fill="#fff" stroke-width=".080354"/>
   <g transform="matrix(.16824 0 0 .16824 4.0633 216.48)">
    <path d="m301.18 203.07c-0.82642 23.752-16.16 42.686-34.96 42.686-1.8429 0-3.6518-0.18452-5.4177-0.53508 4.5182 4.6616 10.842 7.5633 17.846 7.5633 13.728 0 24.857-11.129 24.857-24.857v-24.857z" fill="#c7c8ca"/>
    <path d="m301.18 203.07h-47.389v24.857c0 6.7237 2.674 12.819 7.011 17.294 1.7659 0.35056 3.5748 0.53508 5.4177 0.53508 18.8 0 34.134-18.934 34.96-42.686z" fill="url(#aq)"/>
    <path d="m253.79 203.07h24.857v-24.857c-13.728 0-24.857 11.129-24.857 24.857z" fill="url(#ar)" stroke="#595a5c" stroke-linecap="round" stroke-linejoin="round" stroke-miterlimit="10"/>
    <path d="m303.5 203.07h-24.857v-24.857c13.728 0 24.857 11.129 24.857 24.857z" fill="url(#as)" stroke="#595a5c" stroke-linecap="round" stroke-linejoin="round" stroke-miterlimit="10"/>
    <path d="m278.65 178.32v-0.11282c-4.2901 0-8.3264 1.0868-11.848 3.0001-1.761 0.95668-3.3936 2.12-4.865 3.4573-0.58856 0.53496-1.1514 1.0978-1.6863 1.6863-0.53491 0.58858-1.042 1.2029-1.5192 1.841-0.71573 0.95706-1.3641 1.9674-1.9382 3.024-0.38266 0.70444-0.73226 1.4294-1.0467 2.1729-0.15724 0.37175-0.30563 0.74811-0.44505 1.1288-0.97579 2.665-1.5084 5.5437-1.5084 8.5467h2.3384c0-12.939 9.8877-23.565 22.519-24.744z" fill="#fff"/>
    <line x1="253.79" x2="303.5" y1="203.07" y2="203.07" fill="none"/>
    <path d="m303.5 203.07c0-9.6151-5.463-17.949-13.451-22.084 6.7292 4.448 11.171 12.078 11.171 20.748l-22.577 1.3231v0.0127h24.857z" fill="#fff"/>
    <path d="m253.79 203.07c0-13.728 11.129-24.857 24.857-24.857s24.857 11.129 24.857 24.857" fill="none" stroke="#595a5c" stroke-linecap="round" stroke-linejoin="round" stroke-miterlimit="10"/>
    <path d="m303.5 203.07v24.857c0 13.728-11.129 24.857-24.857 24.857s-24.857-11.129-24.857-24.857v-24.857" fill="none" stroke="#595a5c" stroke-linecap="round" stroke-linejoin="round" stroke-miterlimit="10"/>
    <line x1="253.79" x2="303.5" y1="203.07" y2="203.07" fill="none" stroke="#595a5c" stroke-linecap="round" stroke-linejoin="round" stroke-miterlimit="10"/>
    <line x1="278.65" x2="278.65" y1="178.21" y2="203.07" fill="none" stroke="#595a5c" stroke-linecap="round" stroke-linejoin="round" stroke-miterlimit="10"/>
   </g>
   <g transform="matrix(.16824 0 0 .16824 4.0633 216.48)">
    <path d="m278.65 199.94c-2.5684 0-4.6505-2.0821-4.6505-4.6505v-9.301c0-2.5684 2.0821-4.6505 4.6505-4.6505s4.6504 2.0821 4.6504 4.6505v9.301c0 2.5684-2.0821 4.6505-4.6504 4.6505z" fill="#fcb021"/>
    <path d="m275.35 187.35c0-2.5684 2.0821-4.6504 4.6505-4.6504 0.93619 0 1.8041 0.28226 2.5338 0.75821-0.82986-1.2722-2.26-2.1167-3.8922-2.1167-2.5684 0-4.6505 2.0821-4.6505 4.6504v9.301c0 1.6322 0.84451 3.0624 2.1168 3.8922-0.47598-0.72971-0.75827-1.5976-0.75827-2.5338z" fill="#fff"/>
    <path d="m278.65 199.94v0c-2.5684 0-4.6505-2.0821-4.6505-4.6505v-9.301c0-2.5684 2.0821-4.6505 4.6505-4.6505v0c2.5684 0 4.6504 2.0821 4.6504 4.6505v9.301c0 2.5684-2.0821 4.6505-4.6504 4.6505z" fill="none" stroke="#595a5c" stroke-linecap="round" stroke-linejoin="round" stroke-miterlimit="10"/>
   </g>
   <path d="m51.233 249.41c0.09418-0.12527 0.18408-0.26684 0.2654-0.42469-0.12207 0.0978-0.26346 0.15887-0.40967 0.18326v-1.6634c1.3e-5 -0.0384-0.01631-0.07-0.04283-0.0921-0.02652-0.022-0.06331-0.0346-0.104-0.0346-0.04068 0-0.07749 0.0126-0.104 0.0346-0.02652 0.0219-0.04284 0.0537-0.04283 0.0921v1.6634c-0.14621-0.0243-0.28759-0.0855-0.40966-0.18326 0.08131 0.15784 0.17119 0.29939 0.26536 0.42469 0.09418 0.12527 0.19262 0.23428 0.29109 0.32698 0.09847-0.0927 0.19695-0.20168 0.29113-0.32698z" fill="#636466" stroke-width=".080354"/>
  </g>
  <g transform="matrix(1.1343 0 0 1.1343 10.436 -27.726)">
   <g transform="matrix(.16824 0 0 .16824 4.0633 216.48)" fill="#636466">
    <path d="m342.73 191.82-9e-3 0.0225 3.9668 2.124-0.68457 1.6768-8.1299-2.3057 0.48535-1.1885 6.3945 1.8574 9e-3 -0.0225-5.8955-3.0791 0.48046-1.1777 6.4209 1.9199 9e-3 -0.0225-5.9228-3.1416 0.43555-1.0664 7.4219 4.0391-0.66113 1.6221-4.3203-1.2578z"/>
    <path d="m349.04 189.23-0.7207 1.1064-7.0381-4.582 0.71973-1.1064 3.0166 1.9639 0.81836-1.2568-3.0166-1.9639 0.7334-1.126 7.0391 4.582-0.7334 1.126-3.0166-1.9639-0.81836 1.2578z"/>
    <path d="m348.34 182.03 1.21-1.3496 0.89356 0.80078-1.209 1.3506 1.833 1.6416 1.5215-1.6982 0.89453 0.80078-2.4033 2.6826-6.2588-5.6074 2.4023-2.6826 0.89453 0.80078-1.5225 1.6992z"/>
    <path d="m351.83 178.58 1.3867-1.166 0.77246 0.91797-1.3867 1.166 1.582 1.8828 1.7451-1.4668 0.77246 0.91894-2.7559 2.3164-5.4043-6.4307 2.7559-2.3154 0.77149 0.91796-1.7451 1.4668z"/>
    <path d="m352.78 173.35 1.1182-0.70117 3.8272 6.0977 1.8389-1.1543 0.6377 1.0156-2.957 1.8564z"/>
    <path d="m361.44 164.49 2.7432 9.3281c0.25391 0.86328 0.72559 1.0625 1.3301 0.88476 0.60449-0.17773 0.89356-0.60058 0.63965-1.4648l-2.7441-9.3272 1.7959-0.52832 2.709 9.2061c0.56836 1.9346-0.0732 3.3252-1.9385 3.874-1.8662 0.54883-3.1582-0.27246-3.7275-2.207l-2.708-9.2061z"/>
    <path d="m375.06 165.5 0.10156 1.6338c0.12402 2.0117-0.77734 3.167-2.7529 3.29l-0.93359 0.0576 0.29297 4.7236-1.9756 0.12207-0.78027-12.571 2.9092-0.18066c1.9756-0.12207 3.0137 0.91308 3.1387 2.9248zm-3.9609-1.0703 0.26465 4.2559 0.93359-0.0576c0.62891-0.0391 0.95215-0.34766 0.89649-1.2461l-0.11719-1.8858c-0.0557-0.89746-0.41504-1.1641-1.043-1.125l-0.93457 0.0586z"/>
    <path d="m382.54 163.28 1.6885 0.2666-6.8721 11.669-1.6885-0.26758z"/>
    <path d="m387.49 164.49 2.9023 1.1787c1.835 0.74512 2.3223 2.1279 1.5635 3.9961l-2.3984 5.9043c-0.75879 1.8682-2.0732 2.5195-3.9072 1.7744l-2.9023-1.1797zm1.1572 2.4131-3.3877 8.3389 1.0342 0.41992c0.58398 0.23731 1.0566 0.0791 1.3945-0.75488l2.4668-6.0703c0.33886-0.83399 0.11035-1.2764-0.47364-1.5137z"/>
    <path d="m394.63 171.06c1.1709-1.6406 2.7041-1.9619 4.2861-0.833s1.7773 2.6836 0.60644 4.3242l-3.8047 5.332c-1.1709 1.6406-2.7041 1.9609-4.2861 0.83203-1.582-1.1289-1.7773-2.6826-0.60644-4.3232zm-2.2666 6.584c-0.52246 0.73242-0.39843 1.2412 0.11426 1.6064 0.5127 0.36622 1.0332 0.31739 1.5557-0.41503l3.9512-5.5371c0.52246-0.73243 0.39843-1.2402-0.11328-1.6064-0.51368-0.36523-1.0342-0.31738-1.5566 0.41504z"/>
    <path d="m402.72 182.05-0.0225-0.0283-5.6768 3.6592-1.7022-2.1201 8.9473-8.9883 1.206 1.502-7.0947 7.0391 0.0225 0.0273 8.335-5.4941 1.1953 1.4883-7.1963 7.0273 0.0234 0.0283 8.4365-5.4834 1.082 1.3476-10.706 6.7978-1.6465-2.0488 4.7969-4.7539z"/>
    <path d="m409.64 188.71-0.0137-0.0332-8.4326 3.4883-0.68066-1.6465 11.643-4.8174 0.94922 2.2959-6.2051 4.7295 0.0137 0.0332 6.9688-2.8838 0.6748 1.6299-11.643 4.8174-0.77735-1.8789z"/>
   </g>
   <path d="m63.246 250.64h-0.39128v4.1819c0 0.82017 0.23743 1.5842 0.64562 2.2296-0.19202-0.73831-0.25434-1.5772-0.25434-2.2296z" fill="#fff" stroke-width=".080354"/>
   <g transform="matrix(.16824 0 0 .16824 4.0633 216.48)">
    <path d="m396.84 203.07c-0.82641 23.752-16.16 42.686-34.96 42.686-1.8429 0-3.6518-0.18452-5.4177-0.53508 4.5182 4.6616 10.842 7.5633 17.846 7.5633 13.728 0 24.857-11.129 24.857-24.857v-24.857z" fill="#c7c8ca"/>
    <path d="m396.84 203.07h-47.389v24.857c0 6.7237 2.674 12.819 7.011 17.294 1.7659 0.35056 3.5748 0.53508 5.4177 0.53508 18.8 0 34.134-18.934 34.96-42.686z" fill="url(#at)"/>
    <path d="m349.46 203.07h24.857v-24.857c-13.728 0-24.857 11.129-24.857 24.857z" fill="url(#au)" stroke="#595a5c" stroke-linecap="round" stroke-linejoin="round" stroke-miterlimit="10"/>
    <path d="m399.17 203.07h-24.857v-24.857c13.728 0 24.857 11.129 24.857 24.857z" fill="url(#av)" stroke="#595a5c" stroke-linecap="round" stroke-linejoin="round" stroke-miterlimit="10"/>
    <path d="m374.31 178.32v-0.11282c-4.2901 0-8.3264 1.0868-11.848 3.0001-1.761 0.95668-3.3936 2.12-4.865 3.4573-0.58859 0.53496-1.1514 1.0978-1.6863 1.6863-0.53494 0.58858-1.042 1.2029-1.5192 1.841-0.71573 0.95706-1.3641 1.9674-1.9381 3.024-0.38266 0.70444-0.73227 1.4294-1.0467 2.1729-0.15723 0.37175-0.30563 0.74811-0.44504 1.1288-0.9758 2.665-1.5084 5.5437-1.5084 8.5467h2.3384c0-12.939 9.8877-23.565 22.519-24.744z" fill="#fff"/>
    <line x1="349.46" x2="399.17" y1="203.07" y2="203.07" fill="none"/>
    <path d="m399.17 203.07c0-9.6151-5.463-17.949-13.451-22.084 6.7292 4.448 11.171 12.078 11.171 20.748l-22.577 1.3231v0.0127h24.857z" fill="#fff"/>
    <path d="m349.46 203.07c0-13.728 11.129-24.857 24.857-24.857s24.857 11.129 24.857 24.857" fill="none" stroke="#595a5c" stroke-linecap="round" stroke-linejoin="round" stroke-miterlimit="10"/>
    <path d="m399.17 203.07v24.857c0 13.728-11.129 24.857-24.857 24.857s-24.857-11.129-24.857-24.857v-24.857" fill="none" stroke="#595a5c" stroke-linecap="round" stroke-linejoin="round" stroke-miterlimit="10"/>
    <line x1="349.46" x2="399.17" y1="203.07" y2="203.07" fill="none" stroke="#595a5c" stroke-linecap="round" stroke-linejoin="round" stroke-miterlimit="10"/>
    <line x1="374.31" x2="374.31" y1="178.21" y2="203.07" fill="none" stroke="#595a5c" stroke-linecap="round" stroke-linejoin="round" stroke-miterlimit="10"/>
   </g>
   <g transform="matrix(.16824 0 0 .16824 4.0633 216.48)">
    <path d="m374.31 199.94c-2.5684 0-4.6505-2.0821-4.6505-4.6505v-9.301c0-2.5684 2.0821-4.6505 4.6505-4.6505s4.6505 2.0821 4.6505 4.6505v9.301c0 2.5684-2.0821 4.6505-4.6505 4.6505z" fill="#fcb021"/>
    <path d="m371.02 187.35c0-2.5684 2.0821-4.6504 4.6505-4.6504 0.93616 0 1.804 0.28226 2.5338 0.75821-0.82986-1.2722-2.26-2.1167-3.8922-2.1167-2.5684 0-4.6505 2.0821-4.6505 4.6504v9.301c0 1.6322 0.84454 3.0624 2.1168 3.8922-0.47596-0.72971-0.75827-1.5976-0.75827-2.5338z" fill="#fff"/>
    <path d="m374.31 199.94v0c-2.5684 0-4.6505-2.0821-4.6505-4.6505v-9.301c0-2.5684 2.0821-4.6505 4.6505-4.6505v0c2.5684 0 4.6505 2.0821 4.6505 4.6505v9.301c0 2.5684-2.0821 4.6505-4.6505 4.6505z" fill="none" stroke="#595a5c" stroke-linecap="round" stroke-linejoin="round" stroke-miterlimit="10"/>
   </g>
   <path d="m67.183 247.81c0.14621 0.0244 0.2876 0.0855 0.40966 0.18326-0.0813-0.15784-0.17118-0.2994-0.26535-0.42468s-0.19263-0.23428-0.29109-0.327c-0.09847 0.0927-0.19696 0.2017-0.29113 0.32698-0.0942 0.12528-0.18409 0.26686-0.26542 0.4247 0.12208-0.0978 0.26347-0.15887 0.40967-0.18326v1.4424c-0.1462-0.0244-0.28762-0.0855-0.40967-0.18325 0.08131 0.15784 0.1712 0.29941 0.26537 0.42468 0.09416 0.12526 0.19262 0.23428 0.29108 0.32699 0.09847-0.0927 0.19696-0.20169 0.29113-0.32697 0.0942-0.12529 0.18409-0.26686 0.2654-0.4247-0.12206 0.0978-0.26346 0.15886-0.40966 0.18325v-1.4424z" fill="#636466" stroke-width=".080354"/>
  </g>
  <g transform="matrix(1.1343 0 0 1.1343 -3.2225 -27.726)">
   <g transform="matrix(.16824 0 0 .16824 4.0633 216.48)" fill="#636466">
    <path d="m19.426 305.44 1.4839-2.5274c0.93848-1.5986 2.2852-1.8623 3.9121-0.90722l5.1421 3.0195c1.627 0.95508 2.0527 2.2607 1.1143 3.8584l-1.4839 2.5273zm2.3906-0.74512 7.2632 4.2646 0.52881-0.90039c0.29883-0.50879 0.21631-0.9668-0.50977-1.3936l-5.2876-3.1045c-0.72656-0.42676-1.167-0.27539-1.4658 0.2334z"/>
    <path d="m35.713 302.98c-0.28906-0.13574-0.46973-0.21387-1.1655-0.875l-1.3428-1.2754c-0.79346-0.75391-1.3413-0.76367-1.9214-0.15332l-0.44043 0.46387 3.4785 3.3047-1.2754 1.3428-8.5449-8.1182 1.9248-2.0254c1.3223-1.3926 2.5376-1.376 3.856-0.12304l0.67139 0.63769c0.87891 0.83496 1.1738 1.6494 0.88623 2.5137l0.02441 0.0234c0.91846-0.4043 1.7622-0.0215 2.6528 0.8252l1.3184 1.2529c0.41504 0.39355 0.73193 0.67187 1.1768 0.83886l-1.2988 1.3672zm-8.7158-5.4932 2.625 2.4932 0.49854-0.52441c0.4751-0.50098 0.54541-1.0146-0.13818-1.6641l-0.84229-0.7998c-0.61035-0.58008-1.0757-0.62793-1.5283-0.15234z"/>
    <path d="m42.595 297.87-1.5596 1.0283-1.4434-1.6084-1.8975 1.25 0.90967 1.9609-1.4194 0.93555-4.9097-10.875 2.2627-1.4912zm-5.5835-0.79492 1.4897-0.98144-4.0098-4.4932-0.02783 0.0186 2.5479 5.456z"/>
    <path d="m43.438 290.55 2.4297-0.90722 1.3076 3.5029c0.65967 1.7666 0.15283 3.1064-1.5513 3.7422-1.7036 0.63672-2.9644-0.0439-3.624-1.8105l-2.144-5.7432c-0.65967-1.7676-0.15283-3.1064 1.5513-3.7432 1.7036-0.63574 2.9644 0.0439 3.624 1.8115l0.40039 1.0723-1.6406 0.61328-0.44189-1.1836c-0.29443-0.78906-0.75342-0.95898-1.3057-0.75293-0.55225 0.20606-0.7876 0.63575-0.49316 1.4238l2.2266 5.9639c0.29443 0.78906 0.74756 0.94336 1.2998 0.7373 0.55225-0.20605 0.79346-0.61914 0.49902-1.4082l-0.75976-2.0352-0.78906 0.29394z"/>
   </g>
   <g transform="matrix(.16824 0 0 .16824 4.0633 216.48)">
    <path d="m78.039 322.7c-0.8264 23.752-16.16 42.686-34.96 42.686-1.8429 0-3.6518-0.18451-5.4177-0.53507 4.5182 4.6616 10.842 7.5633 17.846 7.5633 13.728 0 24.857-11.129 24.857-24.857v-24.857z" fill="#c7c8ca"/>
    <path d="m78.039 322.7h-47.389v24.857c0 6.7237 2.674 12.819 7.011 17.294 1.7659 0.35056 3.5748 0.53507 5.4177 0.53507 18.8 0 34.134-18.934 34.96-42.686z" fill="url(#bn)"/>
    <path d="m32.976 322.7h-2.3258v24.857c0 4.8752 1.4113 9.4165 3.8375 13.253-1.1413-4.3885-1.5118-9.3752-1.5118-13.253z" fill="#fff"/>
    <path d="m30.651 322.7h24.857v-24.857c-13.728 0-24.857 11.129-24.857 24.857z" fill="#fcb021" stroke="#595a5c" stroke-linecap="round" stroke-linejoin="round" stroke-miterlimit="10"/>
    <path d="m80.365 322.7h-24.857v-24.857c13.728 0 24.857 11.129 24.857 24.857z" fill="url(#bo)" stroke="#595a5c" stroke-linecap="round" stroke-linejoin="round" stroke-miterlimit="10"/>
    <path d="m55.508 297.96v-0.11282c-4.2901 0-8.3264 1.0868-11.848 3.0001-1.7611 0.95669-3.3936 2.12-4.865 3.4573-0.58858 0.53495-1.1514 1.0978-1.6863 1.6864-0.53492 0.58856-1.042 1.2029-1.5192 1.8409-0.71574 0.95706-1.3641 1.9674-1.9381 3.024-0.38266 0.70443-0.73227 1.4294-1.0467 2.1729-0.15723 0.37173-0.30563 0.74811-0.44505 1.1288-0.97577 2.665-1.5083 5.5436-1.5083 8.5467h2.3384c0-12.939 9.8877-23.565 22.519-24.744z" fill="#fff"/>
    <line x1="30.651" x2="80.365" y1="322.7" y2="322.7" fill="none"/>
    <path d="m80.365 322.7c0-9.6152-5.463-17.949-13.451-22.084 6.7292 4.448 11.171 12.078 11.171 20.748l-22.577 1.3231v0.0127h24.857z" fill="#fff"/>
    <path d="m30.651 322.7c0-13.728 11.129-24.857 24.857-24.857s24.857 11.129 24.857 24.857" fill="none" stroke="#595a5c" stroke-linecap="round" stroke-linejoin="round" stroke-miterlimit="10"/>
    <path d="m80.365 322.7v24.857c0 13.728-11.129 24.857-24.857 24.857s-24.857-11.129-24.857-24.857v-24.857" fill="none" stroke="#595a5c" stroke-linecap="round" stroke-linejoin="round" stroke-miterlimit="10"/>
    <line x1="30.651" x2="80.365" y1="322.7" y2="322.7" fill="none" stroke="#595a5c" stroke-linecap="round" stroke-linejoin="round" stroke-miterlimit="10"/>
    <line x1="55.508" x2="55.508" y1="297.85" y2="322.7" fill="none" stroke="#595a5c" stroke-linecap="round" stroke-linejoin="round" stroke-miterlimit="10"/>
    <path d="m55.508 318.67h-8e-6c-2.0171 0-3.6523-1.6352-3.6523-3.6523v-7.3046c0-2.0171 1.6352-3.6523 3.6523-3.6523h8e-6c2.0171 0 3.6523 1.6352 3.6523 3.6523v7.3046c0 2.0171-1.6352 3.6523-3.6523 3.6523z" fill="#d1d3d4"/>
    <path d="m52.923 308.78c0-2.0171 1.6352-3.6523 3.6523-3.6523 0.73522 0 1.4168 0.22168 1.9899 0.59548-0.65173-0.99911-1.7749-1.6624-3.0568-1.6624-2.0171 0-3.6523 1.6352-3.6523 3.6522v7.3046c0 1.2819 0.66325 2.4051 1.6624 3.0568-0.3738-0.57309-0.59551-1.2547-0.59551-1.9899z" fill="#fff"/>
    <path d="m55.508 318.67h-8e-6c-2.0171 0-3.6523-1.6352-3.6523-3.6523v-7.3046c0-2.0171 1.6352-3.6523 3.6523-3.6523h8e-6c2.0171 0 3.6523 1.6352 3.6523 3.6523v7.3046c0 2.0171-1.6352 3.6523-3.6523 3.6523z" fill="none" stroke="#595a5c" stroke-linecap="round" stroke-linejoin="round" stroke-miterlimit="10"/>
   </g>
   <path d="m10.916 263.16c-2.2861 0.35219-4.1253 2.1536-4.4819 4.4835-0.13031 0.039-0.24063 0.13773-0.28733 0.27643-0.076407 0.22693 0.045622 0.4728 0.27253 0.54921 0.22691 0.0764 0.4728-0.0456 0.5492-0.27253 0.066164-0.19648-0.016823-0.40676-0.1875-0.50934 0.35833-2.1581 2.0762-3.809 4.1922-4.1143 0.02867 0.2071 0.05734 0.41419 0.08601 0.62131 0.12337-0.15595 0.26126-0.30848 0.41406-0.45547 0.15281-0.14698 0.32057-0.28844 0.50354-0.42211-0.16845-0.15159-0.34905-0.29319-0.54061-0.42332-0.19154-0.13013-0.39402-0.24879-0.60615-0.35465 0.02866 0.2071 0.05733 0.4142 0.08599 0.6213z" fill="#636466" stroke-width=".080354"/>
  </g>
  <g transform="matrix(1.1343 0 0 1.1343 -1.9777 -27.726)">
   <g transform="matrix(.16824 0 0 .16824 4.0633 216.48)" fill="#636466">
    <path d="m138.64 284.79 2.7427 1.0322c1.7334 0.65332 2.2226 1.9355 1.5581 3.7002l-2.1016 5.5801c-0.66455 1.7656-1.8779 2.4062-3.6118 1.7539l-2.7427-1.0332zm1.1401 2.2285-2.9678 7.8818 0.97706 0.36817c0.55175 0.20703 0.98974 0.0478 1.2866-0.74024l2.1602-5.7373c0.29688-0.78809 0.0728-1.1963-0.479-1.4043z"/>
    <path d="m143.82 300.42c0.085-0.30761 0.13184-0.49902 0.66602-1.2969l1.0303-1.5391c0.60938-0.90918 0.52637-1.4512-0.17334-1.9199l-0.53174-0.35546-2.6704 3.9873-1.5391-1.0303 6.5581-9.7949 2.3228 1.5557c1.5952 1.0674 1.7842 2.2686 0.77246 3.7793l-0.51513 0.76953c-0.67481 1.0078-1.4272 1.4355-2.3286 1.2988l-0.0186 0.0274c0.5542 0.83789 0.31885 1.7334-0.36524 2.7549l-1.0117 1.5117c-0.31884 0.47559-0.53906 0.83496-0.62841 1.3018l-1.5674-1.0498zm3.9424-9.5195-2.0142 3.0088 0.60156 0.40235c0.57373 0.38476 1.0923 0.36718 1.6167-0.417l0.64648-0.96484c0.46826-0.7002 0.43653-1.167-0.10888-1.5322z"/>
    <path d="m150.01 306.34-1.2774-1.3633 1.3413-1.6943-1.5527-1.6582-1.7788 1.2275-1.1621-1.2412 9.8872-6.6777 1.852 1.9775zm-0.16113-5.6377 1.2197 1.3027 3.75-4.7119-0.023-0.0244-4.9468 3.4336z"/>
    <path d="m157.37 305.94 1.3062 2.2402-3.228 1.8828c-1.6289 0.9502-3.0347 0.67872-3.9507-0.8916-0.9165-1.5703-0.46093-2.9277 1.168-3.8779l5.293-3.0879c1.6289-0.95019 3.0347-0.67871 3.9507 0.8916 0.91651 1.5703 0.46094 2.9277-1.168 3.8779l-0.98877 0.57715-0.88233-1.5127 1.0908-0.63574c0.72705-0.42481 0.81641-0.90528 0.51953-1.415-0.29687-0.50879-0.75976-0.667-1.4868-0.24317l-5.4966 3.207c-0.72705 0.42383-0.80224 0.89649-0.50537 1.4053 0.29688 0.50976 0.74512 0.67675 1.4722 0.25195l1.876-1.0938-0.42432-0.72754z"/>
   </g>
   <g transform="matrix(.16824 0 0 .16824 4.0633 216.48)">
    <path d="m149.59 322.7c-0.8264 23.752-16.16 42.686-34.96 42.686-1.8429 0-3.6518-0.18451-5.4177-0.53507 4.5182 4.6616 10.842 7.5633 17.846 7.5633 13.728 0 24.857-11.129 24.857-24.857v-24.857z" fill="#c7c8ca"/>
    <path d="m149.59 322.7h-47.389v24.857c0 6.7237 2.674 12.819 7.011 17.294 1.7659 0.35056 3.5748 0.53507 5.4177 0.53507 18.8 0 34.134-18.934 34.96-42.686z" fill="url(#aw)"/>
    <path d="m104.53 322.7h-2.3258v24.857c0 4.8752 1.4113 9.4165 3.8375 13.253-1.1413-4.3885-1.5118-9.3752-1.5118-13.253z" fill="#fff"/>
    <path d="m102.2 322.7h24.857v-24.857c-13.728 0-24.857 11.129-24.857 24.857z" fill="url(#ax)" stroke="#595a5c" stroke-linecap="round" stroke-linejoin="round" stroke-miterlimit="10"/>
    <path d="m151.92 322.7h-24.857v-24.857c13.728 0 24.857 11.129 24.857 24.857z" fill="#fcb021" stroke="#595a5c" stroke-linecap="round" stroke-linejoin="round" stroke-miterlimit="10"/>
    <path d="m127.06 297.96v-0.11282c-4.2901 0-8.3264 1.0868-11.848 3.0001-1.761 0.95669-3.3936 2.12-4.865 3.4573-0.58857 0.53495-1.1514 1.0978-1.6863 1.6864-0.53493 0.58856-1.042 1.2029-1.5192 1.8409-0.71574 0.95706-1.3641 1.9674-1.9381 3.024-0.38266 0.70443-0.73227 1.4294-1.0467 2.1729-0.15722 0.37173-0.30563 0.74811-0.44504 1.1288-0.97578 2.665-1.5084 5.5436-1.5084 8.5467h2.3384c0-12.939 9.8877-23.565 22.519-24.744z" fill="#fff"/>
    <line x1="102.2" x2="151.92" y1="322.7" y2="322.7" fill="none"/>
    <path d="m151.92 322.7c0-9.6152-5.463-17.949-13.451-22.084 6.7292 4.448 11.171 12.078 11.171 20.748l-22.577 1.3231v0.0127h24.857z" fill="#fff"/>
    <path d="m102.2 322.7c0-13.728 11.129-24.857 24.857-24.857s24.857 11.129 24.857 24.857" fill="none" stroke="#595a5c" stroke-linecap="round" stroke-linejoin="round" stroke-miterlimit="10"/>
    <path d="m151.92 322.7v24.857c0 13.728-11.129 24.857-24.857 24.857s-24.857-11.129-24.857-24.857v-24.857" fill="none" stroke="#595a5c" stroke-linecap="round" stroke-linejoin="round" stroke-miterlimit="10"/>
    <line x1="102.2" x2="151.92" y1="322.7" y2="322.7" fill="none" stroke="#595a5c" stroke-linecap="round" stroke-linejoin="round" stroke-miterlimit="10"/>
    <line x1="127.06" x2="127.06" y1="297.85" y2="322.7" fill="none" stroke="#595a5c" stroke-linecap="round" stroke-linejoin="round" stroke-miterlimit="10"/>
    <path d="m127.06 318.67c-2.0171 0-3.6523-1.6352-3.6523-3.6523v-7.3046c0-2.0171 1.6352-3.6523 3.6523-3.6523s3.6523 1.6352 3.6523 3.6523v7.3046c0 2.0171-1.6352 3.6523-3.6523 3.6523z" fill="#d1d3d4"/>
    <path d="m124.47 308.78c0-2.0171 1.6352-3.6523 3.6523-3.6523 0.73523 0 1.4169 0.22168 1.9899 0.59548-0.65173-0.99911-1.7749-1.6624-3.0568-1.6624-2.0171 0-3.6523 1.6352-3.6523 3.6522v7.3046c0 1.2819 0.66325 2.4051 1.6624 3.0568-0.3738-0.57309-0.59551-1.2547-0.59551-1.9899z" fill="#fff"/>
    <path d="m127.06 318.67v0c-2.0171 0-3.6523-1.6352-3.6523-3.6523v-7.3046c0-2.0171 1.6352-3.6523 3.6523-3.6523v0c2.0171 0 3.6523 1.6352 3.6523 3.6523v7.3046c0 2.0171-1.6352 3.6523-3.6523 3.6523z" fill="none" stroke="#595a5c" stroke-linecap="round" stroke-linejoin="round" stroke-miterlimit="10"/>
   </g>
   <path d="m32.702 267.31c-0.6672-2.2147-2.7073-3.785-5.0641-3.8137-0.05673-0.12362-0.16992-0.2191-0.31378-0.24602-0.23535-0.0441-0.46183 0.11104-0.50587 0.34638-0.04405 0.23534 0.11103 0.46183 0.34637 0.50587 0.20378 0.0381 0.40044-0.0734 0.47824-0.25661 2.187 0.0542 4.0611 1.5253 4.6582 3.5782-0.20109 0.0573-0.40218 0.11447-0.60327 0.1717 0.1716 0.10045 0.34185 0.21575 0.5087 0.34659 0.16684 0.13085 0.33029 0.27726 0.48813 0.43984 0.12665-0.18794 0.2417-0.38651 0.34388-0.59431 0.1022-0.20781 0.19149-0.42486 0.26676-0.64964-0.20108 0.0572-0.40217 0.11447-0.60326 0.1717z" fill="#636466" stroke-width=".080354"/>
  </g>
  <g transform="matrix(1.1343 0 0 1.1343 -5.0506 -27.094)">
   <g transform="matrix(.16824 0 0 .16824 4.0633 216.48)" fill="#636466">
    <path d="m208.59 283.63 2.3496-0.64257c1.4854-0.40625 2.4404 0.21875 2.8535 1.7305l1.3076 4.7803c0.41309 1.5127-0.0908 2.5361-1.5762 2.9424l-2.3496 0.64258zm1.8545 0.94434 1.8467 6.752 0.83692-0.22851c0.47265-0.12989 0.69043-0.4502 0.50586-1.126l-1.3447-4.915c-0.18457-0.6748-0.53418-0.84082-1.0068-0.71191z"/>
    <path d="m219.75 291.45c-0.10449-0.24414-0.17285-0.39355-0.23828-1.1885l-0.12597-1.5342c-0.0742-0.90625-0.40821-1.2158-1.1055-1.1582l-0.53028 0.043 0.32617 3.9746-1.5342 0.12598-0.80079-9.7627 2.3154-0.18945c1.5898-0.13086 2.334 0.55273 2.457 2.0586l0.0635 0.7666c0.082 1.0049-0.18652 1.6728-0.84277 2.0488l2e-3 0.0283c0.79297 0.25781 1.1035 0.96289 1.1875 1.9805l0.12305 1.5068c0.0391 0.47363 0.082 0.82128 0.26465 1.1709l-1.5615 0.12891zm-2.3604-8.2314 0.2461 2.999 0.5996-0.0488c0.57227-0.0478 0.9004-0.32715 0.83594-1.1084l-0.0791-0.96191c-0.0576-0.69727-0.31934-0.98438-0.86328-0.94043l-0.73926 0.0605z"/>
    <path d="m226.97 291.85-1.5459-0.15723-0.085-1.7959-1.8809-0.1914-0.44433 1.7422-1.4072-0.14355 2.5537-9.5928 2.2432 0.22852 0.5664 9.9102zm-3.1816-3.4482 1.4766 0.1504-0.22168-5.0059-0.0283-3e-3 -1.2266 4.8584z"/>
    <path d="m231.26 287.42 2.0674 0.60645-0.87403 2.9805c-0.44043 1.5039-1.4443 2.1426-2.8945 1.7178s-1.9502-1.5049-1.5098-3.0088l1.4336-4.8877c0.44043-1.5039 1.4443-2.1426 2.8945-1.7178 1.4502 0.42481 1.9502 1.5049 1.5098 3.0088l-0.26758 0.91309-1.3965-0.40918 0.29492-1.0068c0.19726-0.67187-0.0234-1.0137-0.49414-1.1514-0.46973-0.13769-0.83985 0.0312-1.0361 0.70215l-1.4883 5.0762c-0.19726 0.67089 0.0274 0.99902 0.49707 1.1367 0.47071 0.13868 0.83692-0.0166 1.0332-0.68847l0.50781-1.7324-0.6709-0.19629z"/>
   </g>
   <g transform="matrix(.16824 0 0 .16824 4.0633 216.48)">
    <path d="m243.77 319.39c-0.8264 23.752-16.16 42.686-34.96 42.686-1.8429 0-3.6518-0.18451-5.4177-0.53506 4.5182 4.6616 10.842 7.5633 17.846 7.5633 13.728 0 24.857-11.129 24.857-24.857v-24.857z" fill="#c7c8ca"/>
    <path d="m243.77 319.39h-47.389v24.857c0 6.7237 2.674 12.819 7.011 17.294 1.7659 0.35055 3.5748 0.53506 5.4177 0.53506 18.8 0 34.134-18.934 34.96-42.686z" fill="url(#an)"/>
    <path d="m196.38 319.39h24.857v-24.857c-13.728 0-24.857 11.129-24.857 24.857z" fill="url(#ao)" stroke="#595a5c" stroke-linecap="round" stroke-linejoin="round" stroke-miterlimit="10"/>
    <path d="m246.09 319.39h-24.857v-24.857c13.728 0 24.857 11.129 24.857 24.857z" fill="url(#ap)" stroke="#595a5c" stroke-linecap="round" stroke-linejoin="round" stroke-miterlimit="10"/>
    <path d="m221.24 294.65v-0.11283c-4.2901 0-8.3264 1.0868-11.848 3.0001-1.7611 0.95666-3.3936 2.12-4.865 3.4573-0.58857 0.53494-1.1514 1.0978-1.6863 1.6863-0.53492 0.58856-1.042 1.2029-1.5192 1.8409-0.71574 0.95707-1.3641 1.9674-1.9381 3.024-0.38266 0.70444-0.73227 1.4294-1.0467 2.1729-0.15723 0.37174-0.30563 0.74811-0.44505 1.1288-0.97577 2.665-1.5084 5.5437-1.5084 8.5468h2.3384c0-12.939 9.8877-23.565 22.519-24.744z" fill="#fff"/>
    <line x1="196.38" x2="246.09" y1="319.39" y2="319.39" fill="none"/>
    <path d="m246.09 319.39c0-9.6151-5.463-17.949-13.451-22.084 6.7292 4.448 11.171 12.078 11.171 20.748l-22.577 1.3231v0.0127h24.857z" fill="#fff"/>
    <path d="m196.38 319.39c0-13.728 11.129-24.857 24.857-24.857s24.857 11.129 24.857 24.857" fill="none" stroke="#595a5c" stroke-linecap="round" stroke-linejoin="round" stroke-miterlimit="10"/>
    <path d="m246.09 319.39v24.857c0 13.728-11.129 24.857-24.857 24.857s-24.857-11.129-24.857-24.857v-24.857" fill="none" stroke="#595a5c" stroke-linecap="round" stroke-linejoin="round" stroke-miterlimit="10"/>
    <line x1="196.38" x2="246.09" y1="319.39" y2="319.39" fill="none" stroke="#595a5c" stroke-linecap="round" stroke-linejoin="round" stroke-miterlimit="10"/>
    <line x1="221.24" x2="221.24" y1="294.53" y2="319.39" fill="none" stroke="#595a5c" stroke-linecap="round" stroke-linejoin="round" stroke-miterlimit="10"/>
   </g>
   <g transform="matrix(.16824 0 0 .16824 4.0633 216.48)">
    <path d="m221.24 316.26h-2e-5c-2.5684 0-4.6504-2.0821-4.6504-4.6505v-9.301c0-2.5684 2.0821-4.6504 4.6504-4.6504h2e-5c2.5684 0 4.6505 2.0821 4.6505 4.6504v9.301c0 2.5684-2.0821 4.6505-4.6505 4.6505z" fill="#fcb021"/>
    <path d="m217.94 303.67c0-2.5684 2.0821-4.6504 4.6505-4.6504 0.93616 0 1.8041 0.28226 2.5338 0.75821-0.82985-1.2722-2.26-2.1167-3.8922-2.1167-2.5684 0-4.6505 2.0821-4.6505 4.6504v9.3009c0 1.6322 0.84452 3.0624 2.1167 3.8922-0.47595-0.72968-0.75825-1.5976-0.75825-2.5338z" fill="#fff"/>
    <path d="m221.24 316.26h-2e-5c-2.5684 0-4.6504-2.0821-4.6504-4.6505v-9.301c0-2.5684 2.0821-4.6504 4.6504-4.6504h2e-5c2.5684 0 4.6505 2.0821 4.6505 4.6504v9.301c0 2.5684-2.0821 4.6505-4.6505 4.6505z" fill="none" stroke="#595a5c" stroke-linecap="round" stroke-linejoin="round" stroke-miterlimit="10"/>
   </g>
   <g transform="matrix(.16824 0 0 .16824 4.0633 216.48)">
    <path d="m241.32 282.73c-10.91-8.3665-26.205-8.8564-37.673-0.80938-0.70297-0.3993-1.5806-0.4668-2.368-0.0971-1.2883 0.60489-1.8422 2.1396-1.2374 3.4278 0.60486 1.2882 2.1395 1.8422 3.4278 1.2373 1.1155-0.52374 1.677-1.7444 1.4157-2.8988 10.738-7.3338 24.888-6.7459 34.897 1.0831-0.77125 0.97451-1.5425 1.9489-2.3138 2.9235 1.1767-0.11151 2.3984-0.14658 3.6576-0.0948 1.2592 0.0517 2.5562 0.19037 3.8823 0.42642-0.0418-1.3464-0.17639-2.7039-0.4052-4.0612-0.22876-1.3573-0.5518-2.7144-0.96934-4.0602-0.77129 0.97446-1.5426 1.949-2.3138 2.9234z" fill="#636466"/>
   </g>
  </g>
  <g transform="matrix(1.1343 0 0 1.1343 -3.6429 -28.38)">
   <g transform="translate(-13.796 -18.993)">
    <g transform="matrix(.10762 0 0 .10762 -265.07 714.86)">
     <g transform="matrix(1.5633 0 0 1.5633 2500.9 -4631.1)" fill="#636466">
      <path d="m288.13 288.59 0.38965 1.2432c0.46777 1.4971-0.0127 2.5859-1.457 3.0381-1.4434 0.45117-2.459-0.16992-2.9277-1.667l-1.5215-4.8652c-0.46875-1.4971 0.0127-2.5869 1.456-3.0391 1.4434-0.45117 2.46 0.16992 2.9277 1.667l0.28418 0.90918-1.3896 0.43457-0.31348-1.002c-0.20899-0.66894-0.58301-0.83105-1.0508-0.68457-0.46778 0.14649-0.68262 0.49219-0.47363 1.1611l1.581 5.0527c0.20898 0.66797 0.57812 0.8164 1.0459 0.66992 0.46777-0.14551 0.68652-0.47852 0.47754-1.1465l-0.41797-1.3369z"/>
      <path d="m288.71 282.23 1.5254-0.208 1.1357 8.3223 2.5098-0.34277 0.18945 1.3877-4.0361 0.54981z"/>
      <path d="m294.57 281.65 1.5391-0.0254 0.16015 9.7949-1.5391 0.0254-0.16016-9.7949z"/>
      <path d="m302.25 288.3-0.15723 1.293c-0.19043 1.5576-1.0771 2.3516-2.5781 2.1689-1.501-0.18261-2.1719-1.167-1.9814-2.7246l0.61622-5.0596c0.18945-1.5566 1.0762-2.3516 2.5781-2.1689 1.501 0.18359 2.1709 1.168 1.9814 2.7246l-0.11524 0.94531-1.4453-0.17578 0.12695-1.043c0.084-0.69531-0.18945-0.99609-0.67578-1.0557-0.48633-0.0596-0.82422 0.16796-0.90918 0.8623l-0.64062 5.2549c-0.084 0.69532 0.1914 0.98243 0.67773 1.042 0.48633 0.0586 0.82227-0.1543 0.90723-0.84864l0.16894-1.3906z"/>
      <path d="m305.68 288.98-0.7246 0.71094-0.90821 2.8701-1.4688-0.46485 2.959-9.3457 1.4678 0.46484-1.2803 4.0449 0.0264 9e-3 3.1768-3.4453 1.4688 0.46485-3.3613 3.5195 0.40235 5.8272-1.5078-0.47852-0.25001-4.1768z"/>
     </g>
     <g transform="matrix(1.5633 0 0 1.5633 2500.9 -4631.1)">
      <path d="m318.4 319.39c-0.82642 23.752-16.16 42.686-34.96 42.686-1.8429 0-3.6518-0.18451-5.4177-0.53506 4.5182 4.6616 10.842 7.5633 17.846 7.5633 13.728 0 24.857-11.129 24.857-24.857v-24.857z" fill="#c7c8ca"/>
      <path d="m318.4 319.39h-47.389v24.857c0 6.7237 2.674 12.819 7.011 17.294 1.7659 0.35055 3.5748 0.53506 5.4177 0.53506 18.8 0 34.134-18.934 34.96-42.686z" fill="url(#ay)"/>
      <path d="m271.01 319.39h24.857v-24.857c-13.728 0-24.857 11.129-24.857 24.857z" fill="url(#az)" stroke="#595a5c" stroke-linecap="round" stroke-linejoin="round" stroke-miterlimit="10"/>
      <path d="m320.72 319.39h-24.857v-24.857c13.728 0 24.857 11.129 24.857 24.857z" fill="url(#ba)" stroke="#595a5c" stroke-linecap="round" stroke-linejoin="round" stroke-miterlimit="10"/>
      <path d="m295.86 294.65v-0.11283c-4.2901 0-8.3264 1.0868-11.848 3.0001-1.761 0.95666-3.3936 2.12-4.865 3.4573-0.58859 0.53494-1.1514 1.0978-1.6863 1.6863-0.53494 0.58856-1.042 1.2029-1.5192 1.8409-0.71573 0.95707-1.3641 1.9674-1.9381 3.024-0.38266 0.70444-0.73227 1.4294-1.0467 2.1729-0.15722 0.37174-0.30563 0.74811-0.44503 1.1288-0.97577 2.665-1.5084 5.5437-1.5084 8.5468h2.3384c0-12.939 9.8877-23.565 22.519-24.744z" fill="#fff"/>
      <line x1="271.01" x2="320.72" y1="319.39" y2="319.39" fill="none"/>
      <path d="m320.72 319.39c0-9.6151-5.463-17.949-13.451-22.084 6.7292 4.448 11.171 12.078 11.171 20.748l-22.577 1.3231v0.0127h24.857z" fill="#fff"/>
      <path d="m271.01 319.39c0-13.728 11.129-24.857 24.857-24.857s24.857 11.129 24.857 24.857" fill="none" stroke="#595a5c" stroke-linecap="round" stroke-linejoin="round" stroke-miterlimit="10"/>
      <path d="m320.72 319.39v24.857c0 13.728-11.129 24.857-24.857 24.857s-24.857-11.129-24.857-24.857v-24.857" fill="none" stroke="#595a5c" stroke-linecap="round" stroke-linejoin="round" stroke-miterlimit="10"/>
      <line x1="271.01" x2="320.72" y1="319.39" y2="319.39" fill="none" stroke="#595a5c" stroke-linecap="round" stroke-linejoin="round" stroke-miterlimit="10"/>
      <line x1="295.86" x2="295.86" y1="294.53" y2="319.39" fill="none" stroke="#595a5c" stroke-linecap="round" stroke-linejoin="round" stroke-miterlimit="10"/>
     </g>
     <g transform="matrix(1.5633 0 0 1.5633 2500.9 -4631.1)">
      <path d="m295.86 316.26c-2.5684 0-4.6504-2.0821-4.6504-4.6505v-9.301c0-2.5684 2.0821-4.6504 4.6504-4.6504s4.6505 2.0821 4.6505 4.6504v9.301c0 2.5684-2.0821 4.6505-4.6505 4.6505z" fill="#fcb021"/>
      <path d="m292.57 303.67c0-2.5684 2.0821-4.6504 4.6505-4.6504 0.93616 0 1.804 0.28226 2.5338 0.75821-0.82984-1.2722-2.26-2.1167-3.8922-2.1167-2.5684 0-4.6505 2.0821-4.6505 4.6504v9.3009c0 1.6322 0.84451 3.0624 2.1167 3.8922-0.47595-0.72968-0.75827-1.5976-0.75827-2.5338z" fill="#fff"/>
      <path d="m295.86 316.26v0c-2.5684 0-4.6504-2.0821-4.6504-4.6505v-9.301c0-2.5684 2.0821-4.6504 4.6504-4.6504v0c2.5684 0 4.6505 2.0821 4.6505 4.6504v9.301c0 2.5684-2.0821 4.6505-4.6505 4.6505z" fill="none" stroke="#595a5c" stroke-linecap="round" stroke-linejoin="round" stroke-miterlimit="10"/>
     </g>
    </g>
   </g>
  </g>
 </g>
</svg>
